<svg id="svg-iconset" style="display:none;" aria-hidden="true">

<style>
	 .a { stroke:currentColor; fill:none; }
	 .b { fill:currentColor; }
</style>

<!--
	ICONS: 16px
-->

<g class="icons-16">

	<symbol id="icon-16_accept" viewBox="0 0 16 16">
		<polyline class="a" points="3,7 7,11 14,4 "/>
	</symbol>

	<symbol id="icon-16_arrow" viewBox="0 0 16 16">
		<path class="a" d="M9 3l5 5H2h12l-5 5"/>
	</symbol>

	<symbol id="icon-16_arrowhead" viewBox="0 0 16 16">
		<path class="a" d="M6 13l4-5-4-5"/>
	</symbol>

	<symbol id="icon-16_arrow-circle" viewBox="0 0 16 16">
		<g class="a">
			<polyline points="8,5 11,8 5,8 11,8 8,11"/>
			<circle cx="8" cy="8" r="7"/>
		</g>
	</symbol>

	<symbol id="icon-16_arrowhead-circle" viewBox="0 0 16 16">
		<g class="a">
			<path d="M7 11l3-3-3-3"/>
			<circle cx="8" cy="8" r="7"/>
		</g>
	</symbol>

	<symbol id="icon-16_asterisk" viewBox="0 0 16 16">
		<g class="a">
			<path d="M8 8V2"/>
			<path d="M11.5 12.9L8 8l-3.5 4.9"/>
			<path d="M2.3 6.1L8 8l5.7-1.9"/>
		</g>
	</symbol>

	<symbol id="icon-16_asterisk-small" viewBox="0 0 16 16">
		<g class="a">
			<path d="M8 8V4"/>
			<path d="M10.3 11.2L8 8l-2.4 3.2"/>
			<path d="M4.2 6.8L8 8l3.8-1.2"/>
		</g>
	</symbol>

	<symbol id="icon-16_back" viewBox="0 0 16 16">
		<g class="a">
			<path d="M1 13h8.5c3 0 5.5-2.5 5.5-5.5S12.5 2 9.5 2 4 4.5 4 7.5V9"/>
			<path d="M1 7l3 3 3-3"/>
		</g>
	</symbol>

	<symbol id="icon-16_ban" viewBox="0 0 16 16">
		<g class="a">
			<circle cx="8" cy="8" r="7"/>
			<path d="M3.1 3.1l9.8 9.8"/>
		</g>
	</symbol>

	<symbol id="icon-16_bell" viewBox="0 0 16 16">
		<path class="a" d="M2 13c1 0 2-1 2-6 0-2.4 1.8-4 4-4s4 1.7 4 4c0 5 1 6 2 6H2zM8 3V1M8 13v2"/>
	</symbol>

	<symbol id="icon-16_briefcase" viewBox="0 0 16 16">
		<path class="a" d="M11 4V2c0-.5-.4-1-1-1H6c-.6 0-1 .5-1 1v2H2c-.5 0-1 .4-1 1v4h4V8v2-1h6V8v2-1h4V5c0-.6-.4-1-1-1H5M15 12v1c0 .6-.4 1-1 1H2c-.5 0-1-.4-1-1v-1"/>
	</symbol>

	<symbol id="icon-16_calendar" viewBox="0 0 16 16">
		<path class="a" d="M5 3V1v1H2c-.5 0-1 .5-1 1v11c0 .6.5 1 1 1h12c.6 0 1-.4 1-1V6H1h14V3c0-.5-.4-1-1-1h-3V1v2-1H8"/>
	</symbol>

	<symbol id="icon-16_circle" viewBox="0 0 16 16">
		<circle class="a" cx="8" cy="8" r="7"/>
	</symbol>

	<symbol id="icon-16_cloud-download" viewBox="0 0 16 16">
		<path class="a" d="M12 11c1.5 0 3-1.8 3-4 0-2-1.5-3.7-3.5-4-.7-1.2-2-2-3.5-2-2.2 0-4 1.8-4 4-1.7 0-3 1.3-3 3s1.3 3 3 3M8 9v6M6 13l2 2 2-2"/>
	</symbol>

	<symbol id="icon-16_cloud-upload" viewBox="0 0 16 16">
		<g class="a">
			<path d="M12 12c1.5 0 3-1.8 3-4 0-2-1.5-3.7-3.5-4-.7-1.2-2-2-3.5-2-2.2 0-4 1.8-4 4-1.7 0-3 1.3-3 3s1.3 3 3 3M8 15V8"/>
			<path d="M6 10l2-2 2 2"/>
		</g>
	</symbol>

	<symbol id="icon-16_columns" viewBox="0 0 16 16">
		<g class="a">
			<path d="M14,14H2c-0.5,0-1-0.4-1-1V3c0-0.5,0.5-1,1-1h12c0.6,0,1,0.5,1,1v10C15,13.6,14.6,14,14,14z"/>
			<line x1="5" y1="2" x2="5" y2="14"/>
			<line x1="10" y1="2" x2="10" y2="14"/>
		</g>
	</symbol>

	<symbol id="icon-16_diamond" viewBox="0 0 16 16">
		<path class="a" d="M1 6l7 8 7-8H1l3-4h8l3 4"/>
	</symbol>

	<symbol id="icon-16_download" viewBox="0 0 16 16">
		<path class="a" d="M1 10v3c0 .6.5 1 1 1h12c.6 0 1-.4 1-1v-3M8 2v8L5 7l3 3 3-3"/>
	</symbol>

	<symbol id="icon-16_error" viewBox="0 0 16 16">
		<path class="a" d="M7.2 2.5l-6.1 11c-.4.6.1 1.5.9 1.5h12c.9 0 1.3-1 .8-1.8l-6-10.8c-.3-.6-1.2-.6-1.6.1zM8 7v2"/>
		<path class="b" d="M8 11c-.6 0-1 .4-1 1s.4 1 1 1 1-.4 1-1-.4-1-1-1z"/>
	</symbol>

	<symbol id="icon-16_exchange" viewBox="0 0 16 16">
		<path class="a" d="M9 6h6l-3-3 3 3-3 3m-5 1H1l3-3-3 3 3 3"/>
	</symbol>

	<symbol id="icon-16_expand" viewBox="0 0 16 16">
		<path class="a" d="M14 6V3c0-.5-.4-1-1-1h-3M2 10v3c0 .6.5 1 1 1h3M3 13l3-3M13 3l-3 3"/>
	</symbol>

	<symbol id="icon-16_external-small" viewBox="0 0 16 16">
		<path class="a" d="M8 4h4v4m0-4L7 9M5 4c-.6 0-1 .4-1 1v6c0 .6.4 1 1 1h6c.6 0 1-.4 1-1"/>
	</symbol>

	<symbol id="icon-16_eye" viewBox="0 0 16 16">
		<g class="a">
			<circle cx="8" cy="8" r="2"/>
			<path d="M15 8c0 1-3 5-7 5S1 9 1 8s3-5 7-5 7 4 7 5z"/>
		</g>
	</symbol>

	<symbol id="icon-16_face-very-happy" viewBox="0 0 16 16">
		<g class="a">
			<circle cx="8" cy="8" r="7"/>
			<path d="M5 9c-.3 0-.5.2-.4.5C5 11 6.6 12 8 12c1.5 0 3-1 3.4-2.5 0-.3 0-.5-.4-.5H5z"/>
		</g>
		<g class="b">
			<circle cx="10.5" cy="5.5" r="1.5"/>
			<circle cx="5.5" cy="5.5" r="1.5"/>
		</g>
	</symbol>

	<symbol id="icon-16_facebook" viewBox="0 0 16 16">
		<path class="a" d="M11 5h-1s-2 .5-2 2v2h2-2v6h5c1 0 2-1 2-2V3c0-1-1-2-2-2H3C2 1 1 2 1 3v10c0 1 1 2 2 2h5"/>
	</symbol>

	<symbol id="icon-16_filter" viewBox="0 0 16 16">
		<path class="a" d="M14 2H2C1 2 .6 3 1.3 3.8L6 9v6l4-1V9l4.7-5.3C15.3 3 15 2 14 2z"/>
	</symbol>

	<symbol id="icon-16_gearwheel" viewBox="0 0 16 16">
		<g class="a">
			<circle cx="8" cy="8" r="4"/>
			<path d="M10.8 10.8l2 2M3 3l2.2 2.2m0 5.6l-2 2M13 3l-2.2 2.2M4 8H1m14 0h-3m-4 4v3M8 1v3"/>
		</g>
	</symbol>

	<symbol id="icon-16_history" viewBox="0 0 16 16">
		<g class="a">
			<path d="M5.5 12.9c1 .7 2.2 1.1 3.5 1.1 3.3 0 6-2.7 6-6s-2.7-6-6-6-6 2.7-6 6"/>
			<path d="M1 8l2 2 2-2"/>
			<path d="M9 5v3l1.6 1.9"/>
		</g>
	</symbol>

	<symbol id="icon-16_home" viewBox="0 0 16 16">
		<path class="a" d="M1 8l6.3-6.7c.4-.4 1-.4 1.4 0L15 8M13 10v4c0 .6-.4 1-1 1H4c-.5 0-1-.4-1-1v-4"/>
	</symbol>

	<symbol id="icon-16_hourglass" viewBox="0 0 16 16">
		<path class="a" d="M8 8c2.2 0 4-1.8 4-4V1h2H2h2v3c0 2.2 1.7 4 4 4s4 1.8 4 4v3h2H2h2v-3c0-2.2 1.8-4 4-4"/>
	</symbol>

	<symbol id="icon-16_image" viewBox="0 0 16 16">
		<path class="a" d="M13 14H2c-.5 0-1-.4-1-1v-3l4-4 8 8h1c.6 0 1-.4 1-1V3c0-.5-.4-1-1-1H2c-.5 0-1 .5-1 1v7"/>
		<circle class="b" cx="11.5" cy="5.5" r="1.5"/>
	</symbol>

	<symbol id="icon-16_info" viewBox="0 0 16 16">
		<g class="a">
			<circle cx="8" cy="8" r="6"/>
			<path d="M8 10V9"/>
		</g>
		<path class="b" d="M8 4.7c-.7 0-1.3.6-1.3 1.3S7.3 7.3 8 7.3 9.3 6.7 9.3 6 8.7 4.7 8 4.7z"/>
	</symbol>

	<symbol id="icon-16_link" viewBox="0 0 16 16">
		<path class="a" d="M11.3 8.9l3.1-3.1c.8-.8.8-2.1 0-2.8L13 1.6c-.8-.8-2.1-.8-2.8 0L6.8 4.9M4.8 7l-3.2 3.2c-.8.8-.8 2.1 0 2.8L3 14.4c.8.8 2.1.8 2.8 0l3.5-3.5M10 6l-4 4"/>
	</symbol>

	<symbol id="icon-16_magnifying-glass" viewBox="0 0 16 16">
		<g class="a">
			<circle cx="6.5" cy="6.5" r="5.5"/>
			<path d="M15 15l-4.6-4.6"/>
		</g>
	</symbol>

	<symbol id="icon-16_mail-closed" viewBox="0 0 16 16">
		<path class="a" d="M15 10v2c0 .6-.4 1-1 1H2c-.5 0-1-.4-1-1v-2m14-4V4c0-.5-.4-1-1-1H2c-.5 0-1 .4-1 1v2l7 4 7-4z"/>
	</symbol>

	<symbol id="icon-16_minus-circle" viewBox="0 0 16 16">
		<g class="a">
			<circle cx="8" cy="8" r="7"/>
			<path d="M10 8H6"/>
		</g>
	</symbol>

	<symbol id="icon-16_medkit" viewBox="0 0 16 16">
		<g class="a">
			<path d="M10 9H6h2V7v4"/>
			<path d="M5 4V2c0-.5.4-1 1-1h4c.6 0 1 .5 1 1v2h3c.6 0 1 .4 1 1v8c0 .6-.4 1-1 1H2c-.5 0-1-.4-1-1V5c0-.6.5-1 1-1h9"/>
		</g>
	</symbol>

	<symbol id="icon-16_more" viewBox="0 0 16 16">
		<path class="a" d="M1 4h6M1 8h3M1 12h6M14 8H8M11 5v6"/>
	</symbol>

	<symbol id="icon-16_network" viewBox="0 0 16 16">
		<path class="a" d="M8 10h5c.6 0 1-.4 1-1V2c0-.5-.4-1-1-1H3c-.5 0-1 .5-1 1v7c0 .6.5 1 1 1h5v3c-.6 0-1 .4-1 1H1h6c0 .6.4 1 1 1s1-.4 1-1h6-6c0-.6-.4-1-1-1"/>
	</symbol>

	<symbol id="icon-16_padlock-closed" viewBox="0 0 16 16">
		<path class="a" d="M8 10v2m3-5V4c0-1.7-1.3-3-3-3S5 2.3 5 4v3H3c-.5 0-1 .4-1 1v5c0 1 1 2 2 2h8c1 0 2-1 2-2V8c0-.6-.4-1-1-1H5"/>
	</symbol>

	<symbol id="icon-16_padlock-open" viewBox="0 0 16 16">
		<path class="a" d="M9 10v2M1 4c0-1.7 1.3-3 3-3s3 1.3 3 3v3H4c-.5 0-1 .4-1 1v5c0 1 1 2 2 2h8c1 0 2-1 2-2V8c0-.6-.4-1-1-1H7"/>
	</symbol>

	<symbol id="icon-16_pencil" viewBox="0 0 16 16">
		<g class="a">
			<path d="M10.7 1.3L2 10l-1 5 5-1 8.7-8.7s.8-2.3-.3-3.5c-1.3-1.2-3.7-.6-3.7-.5z"/>
			<path d="M2.5 9.5l4 4"/>
			<path d="M9.8 2.2l4 4"/>
		</g>
	</symbol>

	<symbol id="icon-16_plus-circle" viewBox="0 0 16 16">
		<g class="a">
			<circle cx="8" cy="8" r="7"/>
			<path d="M5 8h6M8 5v6"/>
		</g>
	</symbol>

	<symbol id="icon-16_refresh" viewBox="0 0 16 16">
		<g class="a">
			<path d="M2 7c0-2.5 2.7-5 6-5 2.1 0 3.9 1.4 5 3l1 1V3v3h-3"/>
			<path d="M14 9c0 2.5-2.7 5-6 5-2.1 0-3.9-1.4-5-3l-1-1v3-3h3"/>
		</g>
	</symbol>

	<symbol id="icon-16_rows" viewBox="0 0 16 16">
		<g class="a">
			<path d="M2 7h12"/>
			<path d="M2 11h12"/>
			<path d="M13 15H3c-.5 0-1-.4-1-1V2c0-.5.5-1 1-1h10c.6 0 1 .5 1 1v12c0 .6-.4 1-1 1z"/>
		</g>
	</symbol>

	<symbol id="icon-16_shield" viewBox="0 0 16 16">
		<path class="a" d="M8 1c1.6 1.4 4.5 2 5 2s1 .5 1 1v4c0 4.5-6 7-6 7s-6-2.5-6-7V4c0-.5.5-1 1-1s3.4-.6 5-2z"/>
	</symbol>

	<symbol id="icon-16_shopping-bag" viewBox="0 0 16 16">
		<path class="a" d="M11 6V4c0-1.7-1.3-3-3-3S5 2.3 5 4v2H3.7c-.4 0-.7.4-.8.8l-1 7c0 .7 0 1.2 1 1.2h10c.3 0 1-.5 1-1.2l-1-7c0-.4-.6-.8-1-.8H5"/>
	</symbol>

	<symbol id="icon-16_sign-in" viewBox="0 0 16 16">
		<g class="a">
			<path d="M6.6 15H8c4 0 7-3 7-7s-3-7-7-7H6.6"/>
			<path d="M1 8h6L4 5l3 3-3 3"/>
		</g>
	</symbol>

	<symbol id="icon-16_sign-out" viewBox="0 0 16 16">
		<path class="a" d="M9.4 15H8c-4 0-7-3-7-7s3-7 7-7h1.4M12 5l3 3-3 3m3-3H9"/>
	</symbol>

	<symbol id="icon-16_times" viewBox="0 0 16 16">
		<path class="a" d="M4 4l8 8M12 4l-8 8"/>
	</symbol>

	<symbol id="icon-16_upload" viewBox="0 0 16 16">
		<path class="a" d="M1 10v3c0 .6.5 1 1 1h12c.6 0 1-.4 1-1v-3m-7 0V2L5 5l3-3 3 3"/>
	</symbol>

	<symbol id="icon-16_user" viewBox="0 0 16 16">
		<path class="a" d="M10.7 9.9l2.3.9c1 .4 2 1.1 2 2.2s-.9 2-2 2H3c-1.1 0-2-.9-2-2s1.1-2 2-2.3l2.4-.8M5.3 9.9C4.4 8.9 4 7.3 4 6c0-2.2 1-5 4-5s4 2.8 4 5c0 1.3-.4 2.9-1.3 3.9"/>
	</symbol>

	<symbol id="icon-16_spam" viewBox="0 0 16 16">
		<path class="a" d="M5 1h6l4 4v6l-4 4H5l-4-4V5zm5 7H6"/>
	</symbol>

	<symbol id="icon-16_speech-bubble" viewBox="0 0 16 16">
		<path class="a" d="M14 12H9l-5 3v-3H2c-.5 0-1-.4-1-1V4c0-.5.5-1 1-1h12c.6 0 1 .5 1 1v7c0 .6-.4 1-1 1z"/>
	</symbol>

	<symbol id="icon-16_speech-bubble-1" viewBox="0 0 16 16">
		<g class="a">
			<path d="M4 13H2c-.5 0-1-.4-1-1V2c0-.5.5-1 1-1h12c.6 0 1 .5 1 1v10c0 .6-.4 1-1 1H9l-5 2v-2"/>
			<path d="M8 4v6"/>
		</g>
	</symbol>

	<symbol id="icon-16_speech-bubble-3" viewBox="0 0 16 16">
		<g class="a">
			<path d="M4 13H2c-.5 0-1-.4-1-1V2c0-.5.5-1 1-1h12c.6 0 1 .5 1 1v10c0 .6-.4 1-1 1H9l-5 2v-2"/>
			<path d="M7 4h2v3H8h1v3H7"/>
		</g>
	</symbol>

	<symbol id="icon-16_speech-bubble-12" viewBox="0 0 16 16">
		<g class="a">
			<path d="M4 13H2c-.5 0-1-.4-1-1V2c0-.5.5-1 1-1h12c.6 0 1 .5 1 1v10c0 .6-.4 1-1 1H9l-5 2v-2"/>
			<path d="M6 4v6M9 4h2v3H9v3h2"/>
		</g>
	</symbol>

	<symbol id="icon-16_trash" viewBox="0 0 16 16">
		<path class="a" d="M3 6v8c0 .6.5 1 1 1h8c.6 0 1-.4 1-1V6M2 3h6V1v2h6M6 7v5M10 7v5"/>
	</symbol>

	<symbol id="icon-16_turn-on" viewBox="0 0 16 16">
		<path class="a" d="M8 1v4M4.7 3C3.1 4.1 2 5.9 2 8c0 3.3 2.7 6 6 6s6-2.7 6-6c0-2.1-1.1-3.9-2.7-5"/>
	</symbol>

</g>


<!--
	ICONS: 24px
-->

<g class="icons-24">

	<symbol id="icon-24_address-book" viewBox="0 0 24 24">
		<g class="a">
			<path d="M20 23H5c-1.1 0-2-.9-2-2V3c0-1.1.9-2 2-2h15c1.1 0 2 .9 2 2v18c0 1.1-.9 2-2 2zM1 6h4M1 12h4M1 18h4"/>
			<path d="M18 10.5c0 2.5-1.6 5.5-4.5 7.5-3-2-4.5-5-4.5-7.5S11 6 13.5 6 18 8 18 10.5z"/>
		</g>
		<path class="b" d="M13.5 9c-.8 0-1.5.7-1.5 1.5s.7 1.5 1.5 1.5 1.5-.7 1.5-1.5S14.3 9 13.5 9z"/>
	</symbol>

	<symbol id="icon-24_arrow-circle" viewBox="0 0 24 24">
		<g class="a">
			<circle cx="12" cy="12" r="10"/>
			<path d="M13 8l4 4H7h10l-4 4"/>
		</g>
	</symbol>

	<symbol id="icon-24_arrowhead-circle" viewBox="0 0 24 24">
		<g class="a">
			<circle cx="12" cy="12" r="10"/>
			<path d="M11 8l3 4-3 4"/>
		</g>
	</symbol>

	<symbol id="icon-24_ban" viewBox="0 0 24 24">
		<g class="a">
			<circle cx="12" cy="12" r="10"/>
			<path d="M5 5l14 14"/>
		</g>
	</symbol>

	<symbol id="icon-24_briefcase" viewBox="0 0 24 24">
		<path class="a" d="M1 14V8c0-1.1.9-2 2-2h18c1.1 0 2 .9 2 2v6H1zM1 17v3c0 1.1.9 2 2 2h18c1.1 0 2-.9 2-2v-3M6 12v4M18 12v4M7 6V3c0-.5.4-1 1-1h8c.5 0 1 .5 1 1v3"/>
	</symbol>

	<symbol id="icon-24_calendar" viewBox="0 0 24 24">
		<g class="a">
			<path d="M6 1v4M19 1v4"/>
			<path d="M6 3H4c-1.1 0-2 .9-2 2v15c0 1.1.9 2 2 2h17c1.1 0 2-.9 2-2V5c0-1.1-.9-2-2-2H9"/>
		</g>
		<path class="b" d="M7.5 9C6.7 9 6 9.7 6 10.5S6.7 12 7.5 12 9 11.3 9 10.5 8.3 9 7.5 9zM12.5 9c-.8 0-1.5.7-1.5 1.5s.7 1.5 1.5 1.5 1.5-.7 1.5-1.5S13.3 9 12.5 9zM17.5 9c-.8 0-1.5.7-1.5 1.5s.7 1.5 1.5 1.5 1.5-.7 1.5-1.5S18.3 9 17.5 9zM7.5 15c-.8 0-1.5.7-1.5 1.5S6.7 18 7.5 18 9 17.3 9 16.5 8.3 15 7.5 15zM12.5 15c-.8 0-1.5.7-1.5 1.5s.7 1.5 1.5 1.5 1.5-.7 1.5-1.5-.7-1.5-1.5-1.5zM17.5 15c-.8 0-1.5.7-1.5 1.5s.7 1.5 1.5 1.5 1.5-.7 1.5-1.5-.7-1.5-1.5-1.5z"/>
	</symbol>

	<symbol id="icon-24_card-give" viewBox="0 0 24 24">
		<g class="a">
			<path d="M14 23v-4l-4.4-4.5c-.8-.8-.9-2-.1-2.8s2-.9 2.8-.1L18 16"/>
			<path d="M23 23l-1-1c-.8-.8-1-1.2-1-2v-8s-.4-1.5-1-2l-6-5v3-5c0-1.1-.9-2-2-2H3c-1.1 0-2 .9-2 2v16c0 1.1.9 2 2 2h6"/>
		</g>
	</symbol>

	<symbol id="icon-24_click" viewBox="0 0 24 24">
		<g class="a">
			<path d="M23 11.2C22.6 5.5 17.8 1 12 1 6 1 1 6 1 12c0 5.8 4.5 10.6 10.2 11"/>
			<path d="M12 11l10.4 3c.6.2.7 1 .3 1.3l-7.4 7.5c-.4.4-1 .3-1.3-.3L11 12c-.2-.6.4-1.2 1-1z"/>
			<path d="M19 19l4 4"/>
			<path d="M18.7 10C18 7 15.2 5 12 5c-4 0-7 3-7 7 0 3 2 5.8 5 6.7"/>
		</g>
	</symbol>

	<symbol id="icon-24_clipboard" viewBox="0 0 24 24">
		<g class="a">
			<circle cx="12" cy="3" r="2"/>
			<path d="M7 2H5c-1.1 0-2 .9-2 2v17c0 1.1.9 2 2 2h14c1.1 0 2-.9 2-2V4c0-1.1-.9-2-2-2h-2"/>
			<path d="M7 5h10"/>
		</g>
	</symbol>

	<symbol id="icon-24_company" viewBox="0 0 24 24">
		<path class="a" d="M8.4 1H3.6c-.9 0-1.6.7-1.7 1.6l-.8 18c0 1.3.8 2.4 1.9 2.4h6c1.1 0 1.9-1.1 1.9-2.4l-.8-18C10 1.7 9.3 1 8.4 1zM14 11l6.1-2.8c1.2-.6 2.9.1 2.9 1.5V21c0 1.1-.9 2-2 2h-7M14 15h4M14 19h4"/>
	</symbol>

	<symbol id="icon-24_computer" viewBox="0 0 24 24">
		<path class="a" d="M15 17l2 4h1H6h1l2-4H3c-1 0-2-1-2-2V4c0-1 1-2 2-2h18c1 0 2 1 2 2v11c0 1-1 2-2 2H9"/>
	</symbol>

	<symbol id="icon-24_contacts" viewBox="0 0 24 24">
		<g class="a">
			<path d="M20 23H5c-1.1 0-2-.9-2-2V3c0-1.1.9-2 2-2h15c1.1 0 2 .9 2 2v18c0 1.1-.9 2-2 2zM1 6h4M1 12h4M1 18h4"/>
			<path d="M14.9 14l1.7.7c.7.3 1.4.8 1.4 1.7 0 .9-.6 1.6-1.4 1.6H9.4c-.8 0-1.4-.7-1.4-1.6 0-.9.8-1.6 1.4-1.8l1.7-.6M11.1 14c-.7-.8-1.1-1.9-1.1-3 0-1.7.9-4 3-4s3 2.3 3 4c0 1.1-.4 2.2-1.1 3"/>
		</g>
	</symbol>

	<symbol id="icon-24_dashboard" viewBox="0 0 24 24">
		<path class="a" d="M4 5H2c-.5 0-1-.4-1-1V2c0-.5.5-1 1-1h2c.6 0 1 .5 1 1v2c0 .6-.4 1-1 1zM13 5h-2c-.6 0-1-.4-1-1V2c0-.5.4-1 1-1h2c.6 0 1 .5 1 1v2c0 .6-.4 1-1 1zM22 5h-2c-.5 0-1-.4-1-1V2c0-.5.5-1 1-1h2c.5 0 1 .5 1 1v2c0 .6-.5 1-1 1zM4 23H2c-.5 0-1-.5-1-1v-2c0-.5.5-1 1-1h2c.6 0 1 .5 1 1v2c0 .5-.4 1-1 1zM13 23h-2c-.6 0-1-.5-1-1v-2c0-.5.4-1 1-1h2c.6 0 1 .5 1 1v2c0 .5-.4 1-1 1zM22 23h-2c-.5 0-1-.5-1-1v-2c0-.5.5-1 1-1h2c.5 0 1 .5 1 1v2c0 .5-.5 1-1 1zM4 14H2c-.5 0-1-.4-1-1v-2c0-.6.5-1 1-1h2c.6 0 1 .4 1 1v2c0 .6-.4 1-1 1zM13 14h-2c-.6 0-1-.4-1-1v-2c0-.6.4-1 1-1h2c.6 0 1 .4 1 1v2c0 .6-.4 1-1 1zM22 14h-2c-.5 0-1-.4-1-1v-2c0-.6.5-1 1-1h2c.5 0 1 .4 1 1v2c0 .6-.5 1-1 1z"/>
	</symbol>

	<symbol id="icon-24_document" viewBox="0 0 24 24">
		<path class="a" d="M19 23H5c-1.1 0-2-.9-2-2V3c0-1.1.9-2 2-2h14c1.1 0 2 .9 2 2v18c0 1.1-.9 2-2 2zM8 6h8M8 10h8M8 14h8M8 18h6"/>
	</symbol>

	<symbol id="icon-24_download" viewBox="0 0 24 24">
		<path class="a" d="M17 15c-.5 2.3-2.6 4-5 4s-4.5-1.7-5-4H1v6c0 1.1.9 2 2 2h18c1.1 0 2-.9 2-2v-6h-6zM8 9l4 4 4-4M12 1v11"/>
	</symbol>

	<symbol id="icon-24_error" viewBox="0 0 24 24">
		<g class="a">
			<path d="M12 9v5"/>
			<path d="M10.5 2.9L1.2 19.5c-.6 1.1.2 2.5 1.5 2.5h18.5c1.3 0 2.1-1.4 1.5-2.5L13.5 2.9c-.6-1.2-2.4-1.2-3 0z"/>
		</g>
		<circle class="b" cx="12" cy="18" r="1.5"/>
	</symbol>

	<symbol id="icon-24_exclamation-circle" viewBox="0 0 24 24">
		<g class="a">
			<circle cx="12" cy="12" r="10"/>
			<path d="M12 7v6"/>
		</g>
		<circle class="b" cx="12" cy="17" r="1.5"/>
	</symbol>

	<symbol id="icon-24_eye" viewBox="0 0 24 24">
		<g class="a">
			<path d="M1 12s3.7 8 11 8 11-8 11-8-3.7-8-11-8-11 8-11 8z"/>
			<circle cx="12" cy="12" r="3"/>
		</g>
	</symbol>

	<symbol id="icon-24_face-very-happy" viewBox="0 0 24 24">
		<g class="a">
			<circle cx="12" cy="12" r="11"/>
			<circle cx="8.5" cy="7.5" r="1.5"/>
			<circle cx="15.5" cy="7.5" r="1.5"/>
			<path d="M19 14c-.4 2.5-3.8 5-7 5s-6.7-2.6-7-5c0-.6.4-1 1-1h12c.5 0 1 .4 1 1z"/>
		</g>
	</symbol>

	<symbol id="icon-24_face-happy" viewBox="0 0 24 24">
		<g class="a">
			<circle cx="12" cy="12" r="11"/>
			<circle cx="8.5" cy="7.5" r="1.5"/>
			<circle cx="15.5" cy="7.5" r="1.5"/>
			<path d="M5.5 14c1 3 3.3 5 6.5 5s5.6-2 6.5-5"/>
		</g>
	</symbol>

	<symbol id="icon-24_face-glad" viewBox="0 0 24 24">
		<g class="a">
			<circle cx="12" cy="12" r="11"/>
			<circle cx="8.5" cy="7.5" r="1.5"/>
			<circle cx="15.5" cy="7.5" r="1.5"/>
			<path d="M6 14s2 3 6 3 6-3 6-3"/>
		</g>
	</symbol>

	<symbol id="icon-24_face-neutral" viewBox="0 0 24 24">
		<g class="a">
			<circle cx="12" cy="12" r="11"/>
			<circle cx="8.5" cy="7.5" r="1.5"/>
			<circle cx="15.5" cy="7.5" r="1.5"/>
			<path d="M17 16H7"/>
		</g>
	</symbol>

	<symbol id="icon-24_face-unhappy" viewBox="0 0 24 24">
		<g class="a">
			<circle cx="12" cy="12" r="11"/>
			<circle cx="8.5" cy="7.5" r="1.5"/>
			<circle cx="15.5" cy="7.5" r="1.5"/>
			<path d="M7 17s2-2 5-2 5 2 5 2"/>
		</g>
	</symbol>

	<symbol id="icon-24_file" viewBox="0 0 24 24">
		<path class="a" d="M14 23v-7h7v.5L14.5 23H5c-1 0-2-1-2-2V3c0-1 1-2 2-2h14c1 0 2 1 2 2v13"/>
	</symbol>

	<symbol id="icon-24_folder" viewBox="0 0 24 24">
		<path class="a" d="M21 12H3c-1 0-2 1-2 2v6c0 1 1 2 2 2h18c1 0 2-1 2-2v-6c0-1-1-2-2-2zM1 9V4c0-1 1-2 2-2h4c2.3 0 3 1 4 2l1 1h9c1 0 2 1 2 2v2"/>
	</symbol>

	<symbol id="icon-24_gearwheel" viewBox="0 0 24 24">
		<g class="a">
			<circle cx="12" cy="12" r="3"/>
			<path d="M18.8 16c.4-.6.7-1.3.9-2H21c1.1 0 2-.9 2-2s-.9-2-2-2h-1.3c-.2-.7-.5-1.4-.9-2.1l.9-.9c.8-.8.8-2 0-2.8-.8-.8-2-.8-2.8 0l-.9.9c-.6-.4-1.3-.7-2.1-.9L14 3c0-1.1-.9-2-2-2s-2 .9-2 2v1.3c-1 .1-1.4.4-2.1.8l-.8-.9c-.8-.8-2-.8-2.8 0s-.8 2 0 2.8l.9.9c-.5.7-.8 1.1-.9 2.1H3c-1.1 0-2 .9-2 2s.9 2 2 2h1.3c.2.7.5 1.4.9 2.1l-.9.9c-.8.8-.8 2 0 2.8.8.8 2 .8 2.8 0l.9-.9c.6.4 1.3.7 2.1.9v1.3c0 1.1.9 2 2 2s2-.9 2-2v-1.3c1-.2 1.4-.5 2.1-.9l.9.9c.8.8 2 .8 2.8 0 .8-.8.8-2 0-2.8l-1.1-1z"/>
		</g>
	</symbol>

	<symbol id="icon-24_grading" viewBox="0 0 24 24">
		<g class="a">
			<path d="M12 17.8c1.8-1.3 3-3.4 3-5.8 0-3.9-3.1-7-7-7V3c0-1.1.9-2 2-2h11c1.1 0 2 .9 2 2v18c0 1.1-.9 2-2 2H10c-1.1 0-2-.9-2-2v-2c-3.9 0-7-3.1-7-7 0-2.4 1.2-4.5 3-5.8"/>
			<path d="M5 12l2 2 3-3"/>
		</g>
	</symbol>

	<symbol id="icon-24_groups" viewBox="0 0 24 24">
		<g class="a">
			<circle cx="6.5" cy="6.5" r="5.5"/>
			<circle cx="19" cy="10" r="4"/>
			<circle cx="11.5" cy="19.5" r="3.5"/>
		</g>
	</symbol>

	<symbol id="icon-24_history" viewBox="0 0 24 24">
		<g class="a">
			<path d="M7.9 18.6C9.5 20.1 11.7 21 14 21c5 0 9-4 9-9s-4-9-9-9-9 4-9 9"/>
			<path d="M1 10l4 4 4-4"/>
			<path d="M14 7v5l3 3"/>
		</g>
	</symbol>

	<symbol id="icon-24_home" viewBox="0 0 24 24">
		<g class="a">
			<path d="M1 12l9.6-9.4c.8-.8 2-.8 2.8 0L23 12"/>
			<path d="M20 14v6c0 1-1 2-2 2H6c-1 0-2-1-2-2v-6"/>
		</g>
	</symbol>

	<symbol id="icon-24_image" viewBox="0 0 24 24">
		<g class="a">
			<path d="M19 21H3c-1 0-2-1-2-2v-3l7-5 11 10h2c1 0 2-1 2-2V5c0-1-1-2-2-2H3C2 3 1 4 1 5v11"/>
			<circle cx="17" cy="9" r="2"/>
		</g>
	</symbol>

	<symbol id="icon-24_logo-intra" viewBox="0 0 24 24">
		<g class="a">
			<path d="M16 12V9c.5.4 1.3.6 2 .6 2.4 0 4-2 4-4.3S20 1 17.7 1s-4.3 2-4.3 4.3L11 6.7"/>
			<path d="M12.4 13.8l2.7 1.5c-1 .8-1.6 2-1.6 3.4 0 2.4 2 4.3 4.3 4.3s4.3-2 4.3-4.3c0-1.5-1-3-2-3.7v-2.6"/>
			<path d="M12.4 10l-2.8 1.6c-.2-2.2-2-4-4.3-4C3 7.7 1 9.7 1 12s2 4.3 4.3 4.3c.8 0 1.6-.2 2.3-.6l2.6 1.5"/>
		</g>
	</symbol>

	<symbol id="icon-24_sign-in" viewBox="0 0 24 24">
		<g class="a">
			<path d="M7 4c1.6-1.4 4-2 6-2 5.5 0 10 4.5 10 10s-4.5 10-10 10c-2 0-4.5-.7-6-2"/>
			<path d="M6 8l4 4H1h9l-4 4"/>
		</g>
	</symbol>

	<symbol id="icon-24_magnifying-glass" viewBox="0 0 24 24">
		<g class="a">
			<circle cx="9.5" cy="9.5" r="8.5"/>
			<path d="M23 23l-7.5-7.5"/>
		</g>
	</symbol>

	<symbol id="icon-24_mail-closed" viewBox="0 0 24 24">
		<g class="a">
			<path d="M1 13v5c0 1 1 2 2 2h18c1 0 2-1 2-2v-5"/>
			<path d="M1 8.4l9.5 6.2c.8.5 2 .5 3 0L23 8.3V6c0-1-1-2-2-2H3C2 4 1 5 1 6v2.4z"/>
		</g>
	</symbol>

	<symbol id="icon-24_map-marker" viewBox="0 0 24 24">
		<g class="a">
			<path d="M20 9c0-4.4-3.6-8-8-8S4 4.6 4 9s2.9 8.4 8 14c4.9-5.5 8-9.6 8-14z"/>
			<circle cx="12" cy="9" r="3"/>
		</g>
	</symbol>

	<symbol id="icon-24_minus" viewBox="0 0 24 24">
		<path class="a" d="M4 12h16"/>
	</symbol>

	<symbol id="icon-24_minus-circle" viewBox="0 0 24 24">
		<g class="a">
			<circle cx="12" cy="12" r="10"/>
			<path d="M9 12h6"/>
		</g>
	</symbol>

	<symbol id="icon-24_network" viewBox="0 0 24 24">
		<g class="a">
			<path d="M10 9C9 9 8 8 8 7V3c0-1 1-2 2-2h4c1 0 2 1 2 2v4c0 1-1 2-2 2h-4z"/>
			<path d="M4 19H3c-.5 0-1 .5-1 1v2c0 .5.5 1 1 1h2c.6 0 1-.5 1-1v-2c0-.5-.4-1-1-1H4v-3c0-.6.4-1 1-1h7v4h-1c-.6 0-1 .5-1 1v2c0 .5.4 1 1 1h2c.6 0 1-.5 1-1v-2c0-.5-.4-1-1-1h-1v-7 3h7c.5 0 1 .4 1 1v3h1c.5 0 1 .5 1 1v2c0 .5-.5 1-1 1h-2c-.5 0-1-.5-1-1v-2c0-.5.5-1 1-1h1"/>
		</g>
	</symbol>

	<symbol id="icon-24_paper-plane" viewBox="0 0 24 24">
		<g class="a">
			<path d="M7 16l-6-4L23 2l-7 20-5.2-3.5"/>
			<path d="M23 2L7 16v6l1-1"/>
		</g>
	</symbol>

	<symbol id="icon-24_plus" viewBox="0 0 24 24">
		<path class="a" d="M12 21V3v9H3h18"/>
	</symbol>

	<symbol id="icon-24_plus-circle" viewBox="0 0 24 24">
		<g class="a">
			<circle cx="12" cy="12" r="10"/>
			<path d="M16 12H8h4V8v8"/>
		</g>
	</symbol>

	<symbol id="icon-24_question-circle" viewBox="0 0 24 24">
		<g class="a">
			<circle cx="12" cy="12" r="10"/>
			<path d="M8 9c0-2 1.8-3 4-3s4 .8 4 3c0 2.9-4 2.2-4 5"/>
		</g>
		<circle class="b" cx="12" cy="17.5" r="1.5"/>
	</symbol>

	<symbol id="icon-24_refresh" viewBox="0 0 24 24">
		<path class="a" d="M22 12c0 5.5-4.5 10-10 10-4.1 0-7.6-2.5-9.2-6H7 2v5M2 12C2 6.5 6.5 2 12 2c4.1 0 7.6 2.5 9.2 6H17h5V3"/>
	</symbol>

	<symbol id="icon-24_speech-bubble" viewBox="0 0 24 24">
		<path class="a" d="M20 18h-6l-6 4-1-4H3c-1 0-2-1-2-2V3c0-1 1-2 2-2h17c1 0 2 1 2 2v13c0 1-1 2-2 2z"/>
		<g class="b">
			<circle cx="6.5" cy="9.5" r="1.5"/>
			<circle cx="11.5" cy="9.5" r="1.5"/>
			<circle cx="16.5" cy="9.5" r="1.5"/>
		</g>
	</symbol>

	<symbol id="icon-24_speech-bubbles" viewBox="0 0 24 24">
		<path class="a" d="M9 13h6s3.4 2.4 4 2.8c.5.4 1 .2 1-.5V13h1c1.1 0 2-.9 2-2V5c0-1.1-.9-2-2-2H9c-1.1 0-2 .9-2 2v6c0 1.1.9 2 2 2zM4 8H3c-1.1 0-2 .9-2 2v6c0 1.1.9 2 2 2h1v2.4s.4.8 1.1.3C5.8 20.3 9 18 9 18h2c1.1 0 2-.9 2-2"/>
	</symbol>

	<symbol id="icon-24_table" viewBox="0 0 24 24">
		<path class="a" d="M20 22H4c-1.1 0-2-.9-2-2V4c0-1.1.9-2 2-2h16c1.1 0 2 .9 2 2v16c0 1.1-.9 2-2 2zM22 9H2M22 15H2M9 2v20M15 2v20"/>
	</symbol>

	<symbol id="icon-24_tasks" viewBox="0 0 24 24">
		<g class="a">
			<path d="M7 2H5c-1.1 0-2 .9-2 2v17c0 1.1.9 2 2 2h14c1.1 0 2-.9 2-2V4c0-1.1-.9-2-2-2h-2"/>
			<path d="M7 5h10"/>
			<path d="M12 10h4M12 14h4M12 18h2"/>
			<circle cx="12" cy="3" r="2"/>
		</g>
		<g class="b">
			<circle cx="8" cy="10" r="1"/>
			<circle cx="8" cy="14" r="1"/>
			<circle cx="8" cy="18" r="1"/>
		</g>
	</symbol>

	<symbol id="icon-24_team" viewBox="0 0 24 24">
		<path class="a" d="M12 3C8.7 3 7 6.5 7 9s.9 3.8 2 5l-1.1 1C6.6 16.1 5 17.6 5 18.8c0 1.3.7 2.2 2 2.2h10c1.3 0 2-.9 2-2.2 0-1.2-1.4-2.7-2.8-3.8L15 14c1.1-1.2 2-2.5 2-5s-1.7-6-5-6M2 19.5c-.8-.6-1-1.3-1-1.9 0-.9.2-1.4 1.5-2.6l1-1C2.3 12.8 2 11.3 2 9.6 2 7.9 2.8 6 4.5 5M22 19.5c.8-.6 1-1.3 1-1.9 0-.9-.2-1.4-1.5-2.6l-1-1c1.2-1.2 1.5-2.7 1.5-4.4 0-1.7-.8-3.6-2.5-4.6"/>
	</symbol>

	<symbol id="icon-24_trashcan" viewBox="0 0 24 24">
		<path class="a" d="M4 8v13c0 1 1 2 2 2h12c1 0 2-1 2-2V8M9 10v8m6-8v8m7-13H8h8V2c0-.5-.4-1-1-1H9c-.6 0-1 .5-1 1v3H2"/>
	</symbol>

	<symbol id="icon-24_salary-range" viewBox="0 0 24 24">
		<g class="a">
			<circle cx="16" cy="7" r="1"/>
			<path d="M16 17v6m4-2h3v1-2m-11 1H1v-1 2"/>
			<path d="M11.1 11c1 1.8 2.7 3.6 4.9 6 3.7-4.1 6-6.7 6-10s-2.7-6-6-6c-1.8 0-3.4.8-4.5 2H5c-1.1 0-2 .9-2 2v4c0 1.1.9 2 2 2h6.1z"/>
		</g>
	</symbol>

	<symbol id="icon-24_schedule" viewBox="0 0 24 24">
		<g class="a">
			<path d="M5 1v4M17 1v4M8 3h11c1.1 0 2 .9 2 2v1M5 3H3c-1.1 0-2 .9-2 2v14c0 1.1.9 2 2 2h3"/>
			<circle cx="16" cy="16" r="7"/>
			<path d="M16 13v3l2 2"/>
		</g>
	</symbol>

	<symbol id="icon-24_sharepoint" viewBox="0 0 24 24">
		<g class="a">
			<path d="M10.5 22.9l-7.9-1.5C1.7 21.2 1 20.1 1 19V5c0-1.1.7-2.2 1.6-2.4l7.9-1.5c1.4-.3 2.5.6 2.5 2v17.8c0 1.5-1.2 2.4-2.5 2z"/>
			<path d="M9 8c-2.7-.7-4 .2-4 1.5 0 1.1 1.1 1.7 2 2 1.2.4 2 1.2 2 2.1C9 15.1 7.5 16 5 15"/>
			<path d="M16 8c1.1 0 2-.9 2-2s-.9-2-2-2"/>
			<path d="M16 20c1.1 0 2-.9 2-2s-.9-2-2-2"/>
			<path d="M18 6.2c1.3.9 2.3 2.2 2.7 3.8"/>
			<path d="M20.7 14c-.5 1.6-1.4 2.9-2.7 3.8"/>
			<circle cx="21" cy="12" r="2"/>
		</g>
	</symbol>

	<symbol id="icon-24_shield" viewBox="0 0 24 24">
		<path class="a" d="M12 23s9-4 9-11V6c0-1-1-2-2-2-4 0-7-3-7-3S9 4 5 4C4 4 3 5 3 6v6c0 7 9 11 9 11z"/>
	</symbol>

	<symbol id="icon-24_shield-accept" viewBox="0 0 24 24">
		<g class="a">
			<path d="M8 12l3 3 6-6"/>
			<path d="M12 23s9-4 9-11V6c0-1-1-2-2-2-4 0-7-3-7-3S9 4 5 4C4 4 3 5 3 6v6c0 7 9 11 9 11z"/>
		</g>
	</symbol>

	<symbol id="icon-24_strategy" viewBox="0 0 24 24">
		<g class="a">
			<circle cx="9" cy="18" r="4"/>
			<path d="M1 1l6 6m0-6L1 7m22 10l-6 6m0-6l6 6M9 11c0-2.4 2.7-5 6-5h7l-4-4 4 4-4 4"/>
		</g>
	</symbol>

	<symbol id="icon-24_upload" viewBox="0 0 24 24">
		<g class="a">
			<path d="M17 15c-.6 2.3-2.6 4-5 4s-4.4-1.7-5-4H1v6c0 1 1 2 2 2h18c1 0 2-1 2-2v-6h-6z"/>
			<path d="M16 5l-4-4-4 4 4-4v12"/>
		</g>
	</symbol>

	<symbol id="icon-24_user" viewBox="0 0 24 24">
		<path class="a" d="M16 15c1.5-1.6 2-3.9 2-6 0-3.5-1.3-8-6-8S6 5.5 6 9c0 2.1.5 4.4 2 6l-4 2c-1.5.7-3 1.6-3 3 0 1.8 1.4 3 3.1 3h15.7c1.7 0 3.1-1.2 3.1-3 0-1.2-1.6-2.3-3-3L16 15z"/>
	</symbol>

	<symbol id="icon-24_user-add" viewBox="0 0 24 24">
		<g class="a">
			<path d="M15.7 10c.2-.6.3-1.3.3-2 0-3-1.4-7-5.5-7C6.5 1 5 5 5 8c0 1.8.7 3.7 2 5.1l-3.5 1.7c-1.2.6-2.5 1.4-2.5 2.6C1 19 2.2 20 3.7 20H9"/>
			<path d="M18 16v4M20 18h-4"/>
			<circle cx="18" cy="18" r="5"/>
		</g>
	</symbol>

	<symbol id="icon-24_wiki" viewBox="0 0 24 24">
		<g class="a">
			<polyline points="1,4 8,19 16,4"/>
			<polyline points="23,4 16,19 8,4"/>
		</g>
	</symbol>

</g>


<!--
	ICONS: 32px
-->

<g class="icons-32">

	<symbol id="icon-32_app-mobile" viewBox="0 0 32 32">
		<g class="a">
			<path d="M1 8h26v2-4c0-1-1-2-2-2H3C2 4 1 5 1 6v16c0 1 1 2 2 2h16"/>
			<path d="M11 11l-7 7"/>
			<path d="M6 11l-2 2"/>
			<path d="M31 15c0-1-1-2-2-2h-5c-1 0-2 1-2 2v11c0 1 1 2 2 2h5c1 0 2-1 2-2v-2h-9 9v-9z"/>
		</g>
	</symbol>

	<symbol id="icon-32_app-console" viewBox="0 0 32 32">
		<g class="a">
			<path d="M1 10h30V6c0-1-1-2-2-2H3C2 4 1 5 1 6v20c0 1 1 2 2 2h26c1 0 2-1 2-2V10"/>
			<path d="M9 15l4 4-4 4"/>
			<path d="M17 23h6"/>
		</g>
		<g class="b">
			<circle cx="25" cy="7" r="1"/>
			<circle cx="28" cy="7" r="1"/>
		</g>
	</symbol>

	<symbol id="icon-32_elements" viewBox="0 0 32 32">
		<g class="a">
			<path d="M26 28H6c-1 0-2-1-2-2V6c0-1 1-2 2-2h20c1 0 2 1 2 2v20c0 1-1 2-2 2z"/>
			<path d="M19 12h5v5h-5z"/>
			<path d="M11 24h7l-3.5-6z"/>
			<circle cx="11.5" cy="11.5" r="3.5"/>
		</g>
	</symbol>

	<symbol id="icon-32_globe" viewBox="0 0 32 32">
		<g class="a">
			<circle cx="15" cy="11" r="10"/>
			<path d="M25 1c2.5 2.5 4 6.2 4 10 0 7.7-5.3 14-13 14-3.8 0-8.5-1.5-11-4"/>
			<path d="M22 31H10h2v-1c0-1 1-2 2-2h2v-3 3h2c1 0 2 1 2 2v1"/>
		</g>
	</symbol>

	<symbol id="icon-32_package" viewBox="0 0 32 32">
		<g class="a">
			<path d="M25 11l-9 5v11-11L3 9v15l13 7 13-7V8L16 1 3 8v1"/>
			<path d="M25 16l-5 3"/>
			<path d="M25 20l-5 3"/>
		</g>
	</symbol>

</g>


<!--
	ICONS: 48px
-->

<g class="icons-48">

	<symbol id="icon-48_agile" viewBox="0 0 48 48">
		<path class="a" d="M1 40h25c7.7 0 14-6.3 14-14s-6.3-14-14-14-14 6.3-14 14v1h5l-5 5-5-5h5M13.3 20C10 21.8 6 21.3 3.5 18.6c-3.3-3.3-3.3-8.7 0-12 2.8-2.8 7-3.2 10.4-1.3l1 .8 3-3v6h-6l3-3M37 40h5v-5l5 5-5 5v-5"/>
	</symbol>

	<symbol id="icon-48_app-console" viewBox="0 0 48 48">
		<g class="a">
			<path d="M46 13H2V9c0-1 1-2 2-2h40c1 0 2 1 2 2v30c0 1-1 2-2 2H4c-1 0-2-1-2-2V13"/>
			<path d="M12 20l7 7-7 7M23 34h10"/>
		</g>
		<g class="b">
			<circle cx="41" cy="10" r="1"/>
			<circle cx="37" cy="10" r="1"/>
			<circle cx="33" cy="10" r="1"/>
		</g>
	</symbol>

	<symbol id="icon-48_app-window" viewBox="0 0 48 48">
		<g class="a">
			<path d="M46 13H2V9c0-1 1-2 2-2h40c1 0 2 1 2 2v30c0 1-1 2-2 2H4c-1 0-2-1-2-2V13"/>
			<path d="M17 36H8c-.6 0-1-.5-1-1V19c0-.5.4-1 1-1h9c.5 0 1 .5 1 1v16c0 .5-.5 1-1 1zM24 24h16c.5 0 1-.5 1-1v-4c0-.5-.5-1-1-1H24c-.5 0-1 .5-1 1v4c0 .5.5 1 1 1zM34 36H24c-.5 0-1-.5-1-1v-5c0-.5.5-1 1-1h10c.5 0 1 .5 1 1v5c0 .5-.5 1-1 1z"/>
		</g>
		<g class="b">
			<circle cx="41" cy="10" r="1"/>
			<circle cx="37" cy="10" r="1"/>
			<circle cx="33" cy="10" r="1"/>
		</g>
	</symbol>

	<symbol id="icon-48_archive" viewBox="0 0 48 48">
		<g class="a">
			<path d="M32 24v3c0 .5-.5 1-1 1H17c-.5 0-1-.5-1-1v-3H4c-1 0-2 1-2 2v11c0 1 1 2 2 2h40c1 0 2-1 2-2V26c0-1-1-2-2-2H32z"/>
			<path d="M45.5 24.7l-7.7-12c-.5-1-1.7-1.7-2.8-1.7H13c-1 0-2.3.7-2.8 1.6L2.8 24.4"/>
		</g>
	</symbol>

	<symbol id="icon-48_binders" viewBox="0 0 48 48">
		<g class="a">
			<path d="M13 2H6C5 2 4 3 4 4v6h9-9v14h9-9v20c0 1 1 2 2 2h7M35 2h7c1 0 2 1 2 2v6h-9 9v14h-9 9v20c0 1-1 2-2 2h-7M17 44c0 1 1 2 2 2h10c1 0 2-1 2-2V4c0-1-1-2-2-2H19c-1 0-2 1-2 2v6h14-14v14h14-14v20z"/>
			<circle cx="24" cy="38" r="2"/>
			<circle cx="38" cy="38" r="2"/>
			<circle cx="10" cy="38" r="2"/>
		</g>
	</symbol>

	<symbol id="icon-48_bomb" viewBox="0 0 48 48">
		<g class="a">
			<circle cx="19" cy="29" r="18"/>
			<path d="M10.5 37.5C8.3 35.3 7 32.2 7 29s1.2-6.2 3.5-8.5S15.8 17 19 17M30.6 10.6L32.2 9l3.4 3.5L39 9l-3.4 3.5L39 16l-1.5 1.4M47 1l-4 4M47 9h-4M47 16l-4-3M39 1v4M32 1l3 4"/>
		</g>
	</symbol>

	<symbol id="icon-48_book-open" viewBox="0 0 48 48">
		<g class="a">
			<path d="M24 9c7.6-5.6 18-5 18-5 .5 0 1 .4 1 1v30c0 .6-.6 1-1 1 0 0-12-.4-18 4V9C16.4 3.4 6 4 6 4c-.5 0-1 .4-1 1v30c0 .6.6 1 1 1 0 0 12-.4 18 4"/>
			<path d="M47 8v30c0 1-1 2-2 2h-2c-8.4 0-11.7.8-15.6 3-1 .6-2.3 1-3.4 1s-2.4-.5-3.4-1c-4-2.2-7.3-3-15.6-3H3c-1 0-2-1-2-2V8"/>
		</g>
	</symbol>

	<symbol id="icon-48_box-kudo" viewBox="0 0 48 48">
		<g class="a">
			<path d="M32 32v3c0 .5-.5 1-1 1H17c-.5 0-1-.5-1-1v-3H4c-1.1 0-2 .9-2 2v9c0 1.1.9 2 2 2h40c1.1 0 2-.9 2-2v-9c0-1.1-.9-2-2-2H32zM10 28V4c0-1.1.9-2 2-2h24c1.1 0 2 .9 2 2v24"/>
			<path d="M30 23l-5-6h-6v6-13 7h2l7-7M2.8 32.4L7 25M45.5 32.7L41 25"/>
		</g>
	</symbol>

	<symbol id="icon-48_brain" viewBox="0 0 48 48">
		<g class="a">
			<path d="M20 24c-3.3 0-6 2.7-6 6s2.7 6 6 6c1 0 2-.3 3-.8 1-.6 1-1.2 2-1.2 1.5 0 3.5 4.5 4 8M37 26c3.3 0 6 2.7 6 6s-2.7 6-6 6c-2.6 0-4.2-1.6-5.7-4 0 0 2 3 2.7 8"/>
			<path d="M21 30c2.8 0 5-2.2 5-5s-2.2-5-5-5c-2.2 0-4-1.8-4-4s1.8-4 4-4"/>
			<path d="M14 30.7c-1 .8-2.2 1.3-3.5 1.3-3 0-5.3-2.3-5.5-5-2.3-.6-4-2.6-4-5 0-1.7.8-3 2-4v-1c0-3.3 2.7-6 6-6 1 0 2.3.3 3 1 .5-3.3 3.5-6 7-6 2.6 0 5 1.4 6 3.6C26.3 8 28 7 30 7c3 0 5.7 2.5 6 5.5.5-.4 1.3-.5 2-.5 2.8 0 5 2.2 5 5v1c2.7 0 4 2.5 4 5 0 2.8-2.2 5-5 5h-.6M24.7 17c.8-1 1.3-2.5 1.3-4"/>
			<path d="M37.3 33c-1-2.4-3.5-4-6.3-4h-1M33 23c1.7 0 3-1.3 3-3s-1.3-3-3-3-3 1.3-3 3M9 24c1.2-1 2-2.4 2-4s-.8-3-2-4"/>
		</g>
	</symbol>

	<symbol id="icon-48_briefcase" viewBox="0 0 48 48">
		<g class="a">
			<path d="M2 32v9c0 1 1 2 2 2h40c1 0 2-1 2-2v-9M19 7v1c0 .6.5 1 1 1h8c.5 0 1-.4 1-1V7"/>
			<path d="M11 28H2V15c0-1 1-2 2-2h10V9c0-1 1-2 2-2h3V6c0-.6.5-1 1-1h8c.5 0 1 .4 1 1v1h3c1 0 2 1 2 2v4H14h30c1 0 2 1 2 2v13h-9"/>
			<path d="M17 28v5c0 .5-.5 1-1 1h-4c-.6 0-1-.5-1-1v-8c0-.5.4-1 1-1h4c.5 0 1 .5 1 1v3h14v-3c0-.5.5-1 1-1h4c.5 0 1 .5 1 1v8c0 .5-.5 1-1 1h-4c-.5 0-1-.5-1-1v-5"/>
		</g>
	</symbol>

	<symbol id="icon-48_brush" viewBox="0 0 48 48">
		<path class="a" d="M20.3 38.7l8 8c.7.7 2 .7 2.7 0l2-2.2-4.8-5 5 5 3.4-3.5-7.6-7.8 7.8 7.8 3.5-3.5-4.3-4.3 4.2 4.2 3.5-3.5-7-7.2 7 7 2.8-2.7c.8-.7.8-2 0-2.7L31 12.7c-.7-.8-2-.8-2.7 0l-2.8 2.8s-3.8 1.8-5.7 0c-3-3-8-10.8-10-12.7s-5-2-7 0-2 5.2 0 7 9.2 6.5 12.7 10c2 2 1.7 4 0 5.7l-2.8 2.8c-.8.8-.8 2 0 2.8l4.2 4.3L35.2 17"/>
		<circle class="b" cx="6.3" cy="6.3" r="1"/>
	</symbol>

	<symbol id="icon-48_bug" viewBox="0 0 48 48">
		<g class="a">
			<path d="M20 47c-9-2.2-9-11.2-9-11.2v-5.5c0-6.7 4-9.3 9-9.3s9 2.6 9 9.3v5.5s0 9-9 11.2"/>
			<path d="M26 22.8l9 4.2 2 16M7 3a2 2 0 0 1 2 2v8a2 2 0 0 0 2 2h2.7"/>
			<path d="M1 17a2 2 0 0 0 2 2h10a7 7 0 1 1 14 0h10a2 2 0 0 0 2-2M37 43a2 2 0 0 0 2 2"/>
			<path d="M26.3 15H29a2 2 0 0 0 2-2V5a2 2 0 0 1 2-2M14 22.8L5 27 3 43a2 2 0 0 1-2 2M26 1l-4 4a3 3 0 0 1 0 6h-4a3 3 0 0 1 0-6l-4-4"/>
		</g>
	</symbol>

	<symbol id="icon-48_business-analysis" viewBox="0 0 48 48">
		<g class="a">
			<path d="M11 25v2c0 1 1 2 2 2h18M34 21h-4v2-4 2H18v2-4 2h-7v-6c0-1 1-2 2-2h6v-2c0-1 1-2 2-2h6c1 0 2 1 2 2v2H19h14"/>
			<path d="M41.3 44.8l1.6 1.7c.7.8 2 .8 2.7 0l.7-.7c.8-.8.8-2 0-2.8l-1.6-1.7-3.5 3.5-4.7-4.6c-.8-.8-.8-2 0-2.8l.7-.7c.8-.8 2-.8 2.8 0l4.8 4.6M35 35l2 2"/>
			<circle cx="19.5" cy="19.5" r="18.5"/>
		</g>
	</symbol>

	<symbol id="icon-48_businessman" viewBox="0 0 48 48">
		<g class="a">
			<path d="M30 7.6c0 3.8 3.5 6.4 5 6.4.6 0 1-.4 1-1s.4-12-11-12-11 11.4-11 12 .5 1 1 1c8.2 0 12.7-3.3 18.1-9.9M15 14c0 4.2 1.8 14 10 14s10-9.3 10-14"/>
			<path d="M24 36l-2 7 3 4 3-4-2-7M32 45h3v-7 7h4c1.1 0 2-.9 2-2v-4.6c0-3-1.3-4.4-5-5.4-.5-.1-1.3-.4-2.4-.7-1.6-.5-1.9-1.3-2.3-1.6M18.7 30.7c-.4.3-.7 1.1-2.3 1.6-1.1.3-1.9.6-2.4.7-3.7 1-5 2.4-5 5.4V43c0 1.1.9 2 2 2h4v-7 7h3"/>
			<circle cx="25" cy="34" r="2"/>
		</g>
	</symbol>

	<symbol id="icon-48_businessman-strong" viewBox="0 0 48 48">
		<g class="a">
			<path d="M34 7.6c0 3.8 3.5 6.4 5 6.4.6 0 1-.4 1-1s.4-12-11-12-11 11.4-11 12 .5 1 1 1c8.2 0 12.7-3.3 18.1-9.9M19 14c0 4.2 1.8 14 10 14s10-9.3 10-14"/>
			<path d="M28 36l-2 7 3 4 3-4-2-7M22 45h-1c-1.1 0-2-.9-2-2v-3c0-1.1-.4-1.9-2-2L5 37c-1.3-.2-2-.8-2-2s1.8-15.3 2-17 1.3-3 3-3c2 0 4 1.3 4 3.7 0 2-1.3 3.3-3 3.3H8v-3 13s1-4 5-4c3.7 0 4.6 3.1 5 3.5s1.3.6 2.4.3c1.6-.5 1.9-.8 2.3-1.2M36 45h3v-7 7h4c1.1 0 2-.9 2-2v-4.6c0-3-1.3-4.4-5-5.4-.5-.1-1.3-.4-2.4-.7-1.6-.5-1.9-1.3-2.3-1.6"/>
			<circle cx="29" cy="34" r="2"/>
		</g>
	</symbol>

	<symbol id="icon-48_calendar" viewBox="0 0 48 48">
		<g class="a">
			<path d="M19 7h10M41 7h3c1.1 0 2 .9 2 2v35c0 1.1-.9 2-2 2H4c-1.1 0-2-.9-2-2V9c0-1.1.9-2 2-2h3"/>
			<path d="M14 12h-2c-.6 0-1-.4-1-1V3c0-.5.4-1 1-1h2c.6 0 1 .5 1 1v8c0 .6-.4 1-1 1zM36 13h-2c-.5 0-1-.4-1-1V3c0-.5.5-1 1-1h2c.5 0 1 .5 1 1v9c0 .6-.5 1-1 1zM34 20h4c.5 0 1 .5 1 1v4c0 .6-.5 1-1 1h-4c-.5 0-1-.4-1-1v-4c0-.5.5-1 1-1zM34 38h4c.5 0 1-.5 1-1v-4c0-.6-.5-1-1-1h-4c-.5 0-1 .4-1 1v4c0 .6.5 1 1 1zM22 32h4c.5 0 1 .4 1 1v4c0 .5-.5 1-1 1h-4c-.5 0-1-.5-1-1v-4c0-.5.5-1 1-1zM10 32h4c.6 0 1 .4 1 1v4c0 .5-.4 1-1 1h-4c-.6 0-1-.5-1-1v-4c0-.5.4-1 1-1zM10 20h4c.6 0 1 .5 1 1v4c0 .6-.4 1-1 1h-4c-.6 0-1-.4-1-1v-4c0-.5.4-1 1-1zM22 20h4c.5 0 1 .5 1 1v4c0 .6-.5 1-1 1h-4c-.5 0-1-.4-1-1v-4c0-.5.5-1 1-1z"/>
		</g>
	</symbol>

	<symbol id="icon-48_car" viewBox="0 0 48 48">
		<g class="a">
			<path d="M1 23s7.7 2 23 2 23-2 23-2M16 33h16"/>
			<path d="M36.7 10c.7 0 1.6.6 2 1.4l5.7 10.8c1 1.5.6 2 .6 2.8v3l-7.2 1c-.5 0-1 .4-1 .8l-.8 2c0 .6.2 1.2.8 1.2H45v-5 13c0 1-1 2-2 2h-5c-1 0-2-1-2-2v-2H12v2c0 1-1 2-2 2H5c-1 0-2-1-2-2V28v5h8.2c.6 0 1-.5.8-1.2l-.8-2c0-.5-.5-.8-1-.8L3 28v-3c0-1-.2-1.4.6-3l5.6-10.7c.4-.8 1.4-1.4 2-1.4H24v3h-3 6-3v-3h12.7z"/>
		</g>
	</symbol>

	<symbol id="icon-48_card-give" viewBox="0 0 48 48">
		<g class="a">
			<path d="M45.2 45L39 36.3V25c0-4-4.3-7-9-11m0 6V5c0-1-1-2-2-2H9C8 3 7 4 7 5v30c0 1 1 2 2 2h15"/>
			<path d="M34 30l-6.6-6c-1-1.2-2.5-1.3-3.5-.4-1.4 1-1.5 2.5-.6 3.5l5.4 8v4c0 1.5.4 3 1.3 4.3l1.4 2"/>
		</g>
	</symbol>

	<symbol id="icon-48_card-scan" viewBox="0 0 48 48">
		<g class="a">
			<circle cx="11" cy="3.5" r="2.5"/>
			<path d="M36 32L28.3 25c-1-1-2.7-1-3.7 0s-1 2.7 0 3.7L31 37v3.8c0 1.5.4 3.2 1.4 4.3l1.6 2M11 25v12c0 1 1 2 2 2h13M2 18.4C4.4 20 7.6 21 11 21s6.5-1 9-2.6M4.5 14.2c2 1 4 1.8 6.5 1.8s4.6-.7 6.5-1.8M7 10c1.2.6 2.6 1 4 1s2.8-.4 4-1"/>
			<path d="M47 47l-6-8.7V27c0-4-4.3-7-9-11v5V9c0-1-1-2-2-2H17"/>
		</g>
	</symbol>

	<symbol id="icon-48_cctv" viewBox="0 0 48 48">
		<g class="a">
			<path d="M37 18H1v-8h4v4-4h6v4-4h6v4-4h30v8h-3l-3 5h-2v4c0 8.3-6.8 15-15 15-8.3 0-15-6.8-15-15v-4h25H7l-3-5"/>
			<path d="M15 39v-3c0-5 4-9 9-9s9 4 9 9v3"/>
			<circle cx="24" cy="35" r="3"/>
		</g>
	</symbol>

	<symbol id="icon-48_certificate" viewBox="0 0 48 48">
		<g class="a">
			<path d="M34 40h2c1 0 2-1 2-2V3c0-1-1-2-2-2H6C5 1 4 2 4 3v35c0 1 1 2 2 2h10"/>
			<circle cx="25" cy="30" r="4"/>
			<path d="M32.4 30c0-1.5.7-3 0-4.3-.7-1.2-2.5-1.4-3.7-2-1.2-.8-2.3-2.2-3.7-2.2-1.5 0-2.5 1.5-3.7 2-1.2.8-3 1-3.7 2.2-.7 1.2 0 2.8 0 4.3s-.7 3 0 4.3c.7 1.2 2.5 1.4 3.7 2 1.2.8 2.3 2.2 3.7 2.2 1.5 0 2.5-1.5 3.7-2 1.2-.8 3-1 3.7-2.2.7-1.2 0-2.8 0-4.3zM20 40v7l5-3 5 3v-7M9 9h17M9 14h21M9 19h10"/>
		</g>
	</symbol>

	<symbol id="icon-48_chart-multi" viewBox="0 0 48 48">
		<g class="a">
			<circle cx="18" cy="14" r="3"/>
			<circle cx="6" cy="26" r="3"/><circle cx="30" cy="20" r="3"/>
			<circle cx="42" cy="6" r="3"/>
			<path d="M32 17.7l6-7M20.7 16.3l3.6 1.8M8 24l5.4-5.4M1 43h2v-6c0-1 1-2 2-2h2c1 0 2 1 2 2v6H3h12V25c0-1 1-2 2-2h2c1 0 2 1 2 2v18h-6 12V31c0-1 1-2 2-2h2c1 0 2 1 2 2v12h-6 12V18c0-1 1-2 2-2h2c1 0 2 1 2 2v25h-6 8"/>
		</g>
	</symbol>

	<symbol id="icon-48_chart-pie" viewBox="0 0 48 48">
		<g class="a">
			<path d="M20 6C10 6.8 2 15.2 2 25.5 2 36.3 10.7 45 21.5 45c10.3 0 18.7-8 19.5-18H20V6zM20 27L7 38M20 15H5.5M20 22H2.3M17 29H2.3"/>
			<path d="M46 20c-.8-9.5-8.5-17.2-18-18v18h18z"/>
		</g>
	</symbol>

	<symbol id="icon-48_computer" viewBox="0 0 48 48">
		<path class="a" d="M1 32h46V8c0-1-1-2-2-2H3C2 6 1 7 1 8v27c0 1 1 2 2 2h17l-2 5h-2 16-2l-2-5h-8 25c1 0 2-1 2-2v-3M11 11l-5 5M6 22l11-11"/>
	</symbol>

	<symbol id="icon-48_computer-design" viewBox="0 0 48 48">
		<g class="a">
			<path d="M31 6H3C2 6 1 7 1 8v16h16H1v11c0 1 1 2 2 2h17l-2 5h-2 16-2l-2-5h-8 25c1 0 2-1 2-2v-3H1h46V9"/>
			<path d="M44.3 5.3c1-1 1-2.5 0-3.5s-2.6-1-3.5 0L23 19.4l-.2.7-.8 4 4-.8c.2 0 .4 0 .6-.3L44.3 5.2z"/>
			<path d="M39 3.5L42.5 7"/>
		</g>
	</symbol>

	<symbol id="icon-48_computer-desktop" viewBox="0 0 48 48">
		<g class="a">
			<path d="M31 42c0 1 1 1 2 1h12c1 0 2-1 2-2V5c0-1-1-2-2-2H33c-1 0-2 1-2 2v3M35 7h8"/>
			<path d="M1 33h34V14c0-1-1-2-2-2H3c-1 0-2 1-2 2v22c0 1 1 2 2 2h12l-2 5h-2 14-2l-2-5h-6 18c1 0 2-1 2-2v-3"/>
		</g>
		<circle cx="39" cy="39" r="1"/>
	</symbol>

	<symbol id="icon-48_computer-finance" viewBox="0 0 48 48">
		<g class="a">
			<path d="M28 37l2 5h2-16 2l2-5H3c-1.1 0-2-.9-2-2v-3h16H1V8c0-1.1.9-2 2-2h42c1.1 0 2 .9 2 2v24H31h16v3c0 1.1-.9 2-2 2H20"/>
			<path d="M29 17c-.4-2.8-2.5-4-5-4s-5 .7-5 4c0 5.9 10 3 10 9.3 0 3.2-3.2 3.7-5 3.7s-4.6-.6-5-4M24 11v21"/>
		</g>
	</symbol>

	<symbol id="icon-48_computer-heartbeat" viewBox="0 0 48 48">
		<path class="a" d="M1 26v9c0 1 1 2 2 2h17l-2 5h-2 16-2l-2-5h-8 25c1 0 2-1 2-2V21h-8l-4-9-6 19-4-10h-7l-3-5-3 11-3-5H1V8c0-1 1-2 2-2h42c1 0 2 1 2 2v9"/>
	</symbol>

	<symbol id="icon-48_computer-phone" viewBox="0 0 48 48">
		<g class="a">
			<path d="M35 38h12V26H35h12v-2c0-1-1-2-2-2h-8c-1 0-2 1-2 2v16c0 1 1 2 2 2h8c1 0 2-1 2-2v-2"/>
			<path d="M43 18V8c0-1-1-2-2-2H3C2 6 1 7 1 8v24h30H1v3c0 1 1 2 2 2h15l-2 5h-2 16-2l-2-5h-8 14"/>
		</g>
	</symbol>

	<symbol id="icon-48_computer-remote" viewBox="0 0 48 48">
		<g class="a">
			<rect x="26" y="23" width="12" height="17" rx="1" ry="1"/>
			<path d="M37.6 16.6a11 11 0 0 0-11-.2M35.6 20a7 7 0 0 0-7 0M39.7 13a15 15 0 0 0-15 0"/>
			<path d="M22 37h-4l2-5H3a2 2 0 0 1-2-2V3a2 2 0 0 1 2-2h42a2 2 0 0 1 2 2v27a2 2 0 0 1-2 2h-3"/>
		</g>
		<g class="b">
			<circle cx="30" cy="27" r="1"/>
			<circle cx="34" cy="27" r="1"/>
			<circle cx="30" cy="31" r="1"/>
			<circle cx="34" cy="31" r="1"/>
		</g>
	</symbol>

	<symbol id="icon-48_cubesat" viewBox="0 0 48 48">
		<path class="a" d="M9 27v-8.5M39 35v2.4l-15 8.2-15-8.2V35M39 18.5V27M24 27v18M24 27L9 18.5 24 10l15 8.5zM37.6 14.2L47 8.6M1 36l15.5-9.2M31.7 26.7L47 36M1 8l10 6"/>
		<g class="b">
			<circle cx="28" cy="38" r="1"/>
			<circle cx="28" cy="34" r="1"/>
		</g>
	</symbol>

	<symbol id="icon-48_diamond" viewBox="0 0 48 48">
		<g class="a">
			<path d="M8.8 1.7A1.7 1.7 0 0 1 10 1h26a1.7 1.7 0 0 1 1.2.7l7.3 8.5a2 2 0 0 1 0 2.7L24.3 33.4a2 2 0 0 1-2.6 0L1.5 13a2 2 0 0 1 0-2.8zM1 11h44"/>
			<path d="M23 1L13 11l10 23 9-23-9-10"/>
		</g>
	</symbol>

	<symbol id="icon-48_dinner" viewBox="0 0 48 48">
		<path class="a" d="M20 28L6.7 41.7c-.8.8-.8 2 0 2.8l1 1c.8.8 2 .8 2.8 0L24 32l12.5 12.4c.8.8 2 .8 2.8 0l1-1c1-1 1-2.2 0-3L6.6 6.7c-.8-.8-2-.8-2.8 0L2.5 7.8c-.8.8-.6 2 0 2.8l10.3 15c.7 1 1.7 1.4 2.7 1.4h2.3c.7 0 1.4 0 1.8.6L24 32M36 6.4l-7.3 7.4c-.5.5-.7 1-.7 1.7v3.3c0 .8-.5 2-1 2.4M31 25c.4-.5 1.6-1 2.5-1h2.8c1.2 0 1.8-.6 2.3-1l7.5-7.6M39.3 9.3L31.7 17M43 12.5l-8 8"/>
	</symbol>

	<symbol id="icon-48_document-text" viewBox="0 0 48 48">
		<g class="a">
			<path d="M13 32h10M13 26h15M13 20h22M13 14h19M39 2H9C8 2 7 3 7 4v40c0 1 1 2 2 2h19l2.7-1.4 9-8.8S41 34.4 41 33V4c0-1-1-2-2-2z"/>
			<path d="M29 45.8V36c0-1 1-2 2-2h9.8"/>
		</g>
	</symbol>

	<symbol id="icon-48_document-write" viewBox="0 0 48 48">
		<path class="a" d="M44.5 29L41 25.7 25 41.4l-.2.7-.8 4 4-.8c.2 0 .4 0 .6-.3L46.3 27c1-1 1-2.5 0-3.5s-2.6-1-3.5 0L41 25.5M20 46H5c-1 0-2-1-2-2V4c0-1 1-2 2-2h30c1 0 2 1 2 2v19M9 32h10M9 26h15M9 20h22M9 14h19"/>
	</symbol>

	<symbol id="icon-48_doors" viewBox="0 0 48 48">
		<path class="a" d="M31 39h8c1 0 2-1 2-2V3c0-1-1-2-2-2H13c-1 0-2 1-2 2v34.8c0 1 1 2.5 2 3l12 6c1 .5 2 0 2-1V10.2c0-1-1-2.4-2-3L13 1M23 23v8"/>
	</symbol>

	<symbol id="icon-48_dumbell" viewBox="0 0 48 48">
		<path class="a" d="M4.2 25.4l-.7-.7c-.8-.8-.8-2 0-2.8L22 3.4c.7-.8 2-.8 2.7 0l.7.7c.8.8.8 2 0 2.8L7 25.4c-.7.8-2 .8-2.8 0zM3.5 17.6c-.8-.8-.8-2 0-2.8L14.8 3.5c.8-.8 2-.8 2.8 0M22.6 43.8l.7.7c.8.8 2 .8 2.8 0L44.6 26c.8-.7.8-2 0-2.7l-.7-.7c-.8-.8-2-.8-2.8 0L22.6 41c-.8.7-.8 2 0 2.8zM30.4 44.5c.8.8 2 .8 2.8 0l11.3-11.3c.8-.8.8-2 0-2.8M41 41l1.4 1.4M19 19l10 10M5.6 5.6L7 7"/>
	</symbol>

	<symbol id="icon-48_earth" viewBox="0 0 48 48">
		<g class="a">
			<circle cx="23" cy="23" r="22"/>
			<path d="M9.7 14.7c-1 2.6-.3 6.7 5 9.7l5 2.8a1 1 0 0 0 1-1c0-1.4-1-1.2-1.5-1.3s-1-1.6-.7-2.4-1.2 1.2-2.2-.6.6-3 2.4-3c4 0 2.4-2 5.4-4.2 5.4-4-2-6.7-6.2-7.4S7.8 8.4 9 10s1 4 .7 4.7zM22.6 30.5c-.3 2.7-2.8.4 0 3s3.8-2.2 3.4 3a7.6 7.6 0 0 1-1.8 4.2c-.5.7 0 1.3 1 1a17 17 0 0 0 5.5-3c3.2-3 3.5-4.6 5-7s-1-1.5-2.8-3.2-4-6.8-7.3-3.3a13.3 13.3 0 0 0-3 5.3zM29.2 2c0 1.4.7 5.2 2.6 7s7.7 3 8 5.6 2.7 5.2 1.8 7.5-2.3 4.6 0 6.5 2.6.5 2.6.5"/>
		</g>
	</symbol>

	<symbol id="icon-48_efficiency" viewBox="0 0 48 48">
		<g class="a">
			<path d="M20 37l-2 5h-2 16-2l-2-5h17c1 0 2-1 2-2v-3H32h15V8c0-1-1-2-2-2H3C2 6 1 7 1 8v24h17H1v3c0 1 1 2 2 2h25"/>
			<path d="M10 32c-.7-1.6-1-3.2-1-5 0-8.3 6.7-15 15-15s15 6.7 15 15c0 1.8-.3 3.4-1 5"/>
			<path d="M31.4 26.4c.6-.7.7-1.4 0-2-.5-.6-1.2-.4-2 .2l-7 6c-.7.8-.7 2 0 2.8 1 .8 2 .8 3 0l6-7z"/>
			<path d="M24 12v3M13.4 16.4l2 2M9 27h3M34.6 16.4l-2 2M39 27h-3"/>
		</g>
	</symbol>

	<symbol id="icon-48_elements" viewBox="0 0 48 48">
		<g class="a">
			<rect x="1" y="1" width="38" height="38" rx="2" ry="2"/>
			<circle cx="13" cy="13" r="6"/>
			<rect x="25" y="15" width="8" height="8" rx="1" ry="1"/>
			<path d="M23 33H13l5-8 5 8"/>
		</g>
	</symbol>

	<!-- Unoptymised -->
	<symbol id="icon-48_elevator" viewBox="0 0 48 48">
		<g class="a">
			<path d="M35,47H3c-1.1,0-2-0.9-2-2V11c0-1.1,0.9-2,2-2h32c1.1,0,2,0.9,2,2v34C37,46.1,36.1,47,35,47z"/>
			<path d="M17,5l-3.7-3.7c-0.4-0.4-1-0.4-1.4,0L8,5"/>
			<path d="M29,1l-3.7,3.7c-0.4,0.4-1,0.4-1.4,0L20,1"/>
			<path d="M8,42v-7c-1.1,0-2-0.9-2-2v-7c0-1.1,0.9-2,2-2h6c1.1,0,2,0.9,2,2v7c0,1.1-0.9,2-2,2v7"/>
			<path d="M23,42l0-7h-1.7c-1.1,0-1.5-1.7-1.1-3.4l2.5-6.5c0.2-0.6,0.8-1.1,1.3-1.1h4c0.5,0,1.1,0.5,1.3,1.1l2.5,6.5 c0.5,1.7,0,3.4-1.1,3.4H29v7"/>
			<circle cx="11" cy="17" r="3"/>
			<circle cx="26" cy="17" r="3"/>
		</g>
	</symbol>

	<symbol id="icon-48_erp" viewBox="0 0 48 48">
		<g class="a">
			<path d="M45.6 16L25 4.2c-.6-.3-1.4-.3-2 0L2.5 16c-.5.3-.5.7 0 1l20.8 11.8c.5.3 1.3.3 1.8 0L45.6 17c.5-.3.5-.7 0-1z"/>
			<path d="M46 23L25 36c-.6.2-1.4.2-2 0L2 23"/>
			<path d="M46 30L25 43c-.6.3-1.4.3-2 0L2 30"/>
		</g>
	</symbol>

	<symbol id="icon-48_exclamation-triangle" viewBox="0 0 48 48">
		<g class="a">
			<path d="M19 5.8l-16 29C1.2 38 3 43 7.7 43H40c5.3 0 6.4-5.4 4.7-8.3L28.7 6C26.4 2 21 2 19 5.7z"/>
			<path d="M24 29c1.8 0 3-1.3 3.2-2.4L29 18c.4-3.3-2.3-5-5-5s-5.5 1.7-5 5l1.8 8.6c0 1 1.4 2.4 3.2 2.4z"/>
			<circle cx="24" cy="36" r="3"/>
		</g>
	</symbol>

	<symbol id="icon-48_face-very-happy" viewBox="0 0 48 48">
		<g class="a">
			<path d="M11.2 29.6c2.2 5 7 8.4 12.8 8.4 5.8 0 10.8-3.5 13-8.6 0-.6 0-1.4-1-1.4H12.2c-.8 0-1.5.6-1 1.6z"/>
			<circle cx="24" cy="24" r="20"/>
			<circle cx="17" cy="18" r="3"/>
			<circle cx="31" cy="18" r="3"/>
		</g>
	</symbol>

	<symbol id="icon-48_face-happy" viewBox="0 0 48 48">
		<g class="a">
			<path d="M11 30c2.2 5 7.3 8 13 8 5.8 0 11-3 13-8"/>
			<circle cx="24" cy="24" r="20"/>
			<circle cx="17" cy="18" r="3"/>
			<circle cx="31" cy="18" r="3"/>
		</g>
	</symbol>

	<symbol id="icon-48_face-glad" viewBox="0 0 48 48">
		<g class="a">
			<path d="M13 30s4 4 11 4 11-4 11-4"/>
			<circle cx="24" cy="24" r="20"/>
			<circle cx="17" cy="18" r="3"/>
			<circle cx="31" cy="18" r="3"/>
		</g>
	</symbol>

	<symbol id="icon-48_face-neutral" viewBox="0 0 48 48">
		<g class="a">
			<path d="M15 32h18"/>
			<circle cx="24" cy="24" r="20"/>
			<circle cx="17" cy="18" r="3"/>
			<circle cx="31" cy="18" r="3"/>
		</g>
	</symbol>

	<symbol id="icon-48_face-unhappy" viewBox="0 0 48 48">
		<g class="a">
			<path d="M13 32s3-3 11-3 11 3 11 3"/>
			<circle cx="24" cy="24" r="20"/>
			<circle cx="17" cy="18" r="3"/>
			<circle cx="31" cy="18" r="3"/>
		</g>
	</symbol>

	<symbol id="icon-48_file-download" viewBox="0 0 48 48">
		<g class="a">
			<path d="M8 31v13c0 1 1 2 2 2h19l2.7-1.4 9-8.8S42 34.4 42 33V4c0-1-1-2-2-2H18"/>
			<path d="M30 45.8V36c0-1 1-2 2-2h9.8"/>
			<path d="M18 15h6.2c1 0 1 1 .5 1.4L13.4 28.7c-.4.4-1 .4-1.3 0L1.5 16.5C1 16 .8 15 1.8 15H8V2"/>
		</g>
	</symbol>

	<symbol id="icon-48_file-upload" viewBox="0 0 48 48">
		<g class="a">
			<path d="M8 22v22c0 1 1 2 2 2h19l2.7-1.4 9-8.8S42 34.4 42 33V4c0-1-1-2-2-2H20"/>
			<path d="M30 45.8V36c0-1 1-2 2-2h9.8"/>
			<path d="M8 16H1.8c-1 0-1-1-.5-1.4L12.7 2.3c.4-.4 1-.4 1.3 0l10.7 12.2c.4.4.5 1.5-.5 1.5H18v13"/>
		</g>
	</symbol>

	<symbol id="icon-48_folder" viewBox="0 0 48 48">
		<path class="a" d="M43 20H5c-1 0-2 1-2 2v18c0 1 1 2 2 2h38c1 0 2-1 2-2V22c0-1-1-2-2-2zM45 16v-4c0-1-1-2-2-2H19s-2.2-.3-3-1l-1.3-1.6C14 6.7 13.4 6 12 6H5C4 6 3 7 3 8v8M10 28h13M10 32h8"/>
	</symbol>

	<symbol id="icon-48_folder-open" viewBox="0 0 48 48">
		<path class="a" d="M45 22H3c-1.3 0-2.2 1-2 2.4l3.7 16C5 41.3 6 42 7 42h34c1 0 2-.7 2.3-1.7l3.6-16c.2-1.2-.7-2.3-2-2.3zM43 18v-4c0-1-1-2-2-2H20s-2.2-.3-3-1L16 9.3c-.8-.7-1.4-1.4-3-1.4H7c-1 0-2 1-2 2v8M11 28h13M12 32h8"/>
	</symbol>

	<symbol id="icon-48_gamepad" viewBox="0 0 48 48">
		<g class="a">
			<path d="M24 15c-4.3 0-6.2-3-11-3C7 12 1 23 1 33c0 6 2.8 7 5 7 6.4 0 9-8 14-8h4M24 15c4.3 0 6.2-3 11-3 6 0 12 11 12 21 0 6-2.8 7-5 7-6.4 0-9-8-14-8h-4"/>
			<path d="M17 24H9h4v-4 8"/>
		</g>
		<g class="b">
			<circle cx="30.5" cy="23.5" r="1.5"/>
			<circle cx="34.5" cy="19.5" r="1.5"/>
			<circle cx="38.5" cy="23.5" r="1.5"/>
			<circle cx="34.5" cy="27.5" r="1.5"/>
		</g>
	</symbol>

	<symbol id="icon-48_gearwheel" viewBox="0 0 48 48">
		<g class="a">
			<circle cx="24" cy="24" r="7"/>
			<path d="M31.4 9.8c-.8-.4-1.6-.8-2.5-1-.5-.2-.9-.6-1-1.1 0 0-.2-1.8-.2-2.5s-.7-1.9-1.1-2.4c-.3-.5-.6-.8-1.3-.8h-2.6c-.7 0-.9.3-1.2.7-.3.5-1 1.7-1.1 2.4s-.2 2.5-.2 2.5c-.1.5-.5 1-1 1.1-.9.3-1.7.6-2.5 1-.5.3-1.1.3-1.5-.1 0 0-1.4-1.1-1.9-1.6s-1.8-.8-2.5-1c-.6 0-.9 0-1.4.5L7.5 9.4c-.4.4-.5.8-.3 1.3.1.6.5 1.9.9 2.5s1.6 1.9 1.6 1.9c.3.4.3 1 .1 1.5-.4.8-.8 1.6-1 2.5-.2.5-.6.9-1.1 1 0 0-1.8.2-2.5.2s-1.9.7-2.4 1.1c-.5.3-.8.6-.8 1.3v2.6c0 .7.3.9.7 1.2.5.3 1.7 1 2.4 1.1s2.5.2 2.5.2c.5.1 1 .5 1.1 1 .3.9.6 1.7 1 2.5.3.5.3 1.1-.1 1.5 0 0-1.1 1.4-1.6 1.9s-.8 1.8-1 2.5c0 .6 0 .9.5 1.4l1.9 1.9c.5.5.8.5 1.4.4.6-.1 1.9-.5 2.5-.9l1.9-1.6c.4-.3 1-.3 1.5-.1.8.4 1.6.8 2.5 1 .5.2.9.6 1 1.1 0 0 .2 1.8.2 2.5.1.7.7 1.9 1.1 2.4.3.4.5.7 1.2.7h2.6c.7 0 .9-.3 1.2-.7.3-.5 1-1.7 1.1-2.4.1-.7.2-2.5.2-2.5.1-.5.5-1 1-1.1.9-.3 1.7-.6 2.5-1 .5-.3 1.1-.3 1.5.1 0 0 1.4 1.1 1.9 1.6.6.5 1.8.8 2.5 1 .5.1.9.1 1.3-.4l1.9-1.9c.5-.5.5-.8.4-1.4-.1-.6-.5-1.9-.9-2.5l-1.6-1.9c-.3-.4-.3-1-.1-1.5.4-.8.8-1.6 1-2.5.2-.5.6-.9 1.1-1 0 0 1.8-.2 2.5-.2.7-.1 1.9-.7 2.4-1.1.4-.3.7-.5.7-1.2v-2.6c0-.7-.3-.9-.7-1.2-.5-.3-1.7-1-2.4-1.1-.7-.1-2.5-.2-2.5-.2-.5-.1-1-.5-1.1-1-.3-.9-.6-1.7-1-2.5-.3-.5-.3-1.1.1-1.5 0 0 1.1-1.4 1.6-1.9.5-.6.8-1.8 1-2.5.1-.5.1-.9-.4-1.3l-1.9-1.9c-.5-.5-.8-.5-1.4-.4-.6.1-1.9.5-2.5.9s-1.9 1.6-1.9 1.6c-.4.2-1 .2-1.4 0z"/>
		</g>
	</symbol>

	<symbol id="icon-48_gearwheels" viewBox="0 0 48 48">
		<g class="a">
			<path d="M27.7 18.2a1 1 0 0 1-.3-1 11.4 11.4 0 0 0 0-2.6 1 1 0 0 1 .4-.7 16 16 0 0 0 3-2.6 1 1 0 0 0 0-1l-.4-1a1 1 0 0 0-.7-.6 19.5 19.5 0 0 0-4 .4 1 1 0 0 1-.7-.4 11.4 11.4 0 0 0-2-2 1 1 0 0 1-.2-.7 16 16 0 0 0 .4-3.8 1 1 0 0 0-.5-.6L21.5 1a1 1 0 0 0-1 .2 19.5 19.5 0 0 0-2.3 3 1 1 0 0 1-1 .3 11.4 11.4 0 0 0-2.5 0A1 1 0 0 1 14 4a16 16 0 0 0-2.6-3 1 1 0 0 0-1 0l-1 .5a1 1 0 0 0-.6.7 19.5 19.5 0 0 0 .4 4 1 1 0 0 1-.4.8 11.5 11.5 0 0 0-2 1.8 1 1 0 0 1-.7.3 16 16 0 0 0-3.8-.3 1 1 0 0 0-.6.6l-.5 1a1 1 0 0 0 .2 1 19.5 19.5 0 0 0 3 2.5 1 1 0 0 1 .3 1 11.4 11.4 0 0 0 0 2.5 1 1 0 0 1-.4.8 16 16 0 0 0-3 2.6 1 1 0 0 0 0 .8l.5 1.2a1 1 0 0 0 .7.5 19.5 19.5 0 0 0 4-.3 1 1 0 0 1 .8.5A11.4 11.4 0 0 0 8.8 25a1 1 0 0 1 .3.8 16 16 0 0 0-.3 4 1 1 0 0 0 .6.5l1 .5a1 1 0 0 0 1 0 19.5 19.5 0 0 0 2.5-3 1 1 0 0 1 1-.4 11.5 11.5 0 0 0 2.5 0 1 1 0 0 1 .8.4 16 16 0 0 0 2.5 3 1 1 0 0 0 1 0l1-.4a1 1 0 0 0 .6-.7 19.5 19.5 0 0 0-.3-4 1 1 0 0 1 .5-.7 11.4 11.4 0 0 0 1.8-2 1 1 0 0 1 .8-.2 16 16 0 0 0 4 .4 1 1 0 0 0 .5-.6l.5-1a1 1 0 0 0 0-1 19.5 19.5 0 0 0-3-2.4zM32.4 39a7.5 7.5 0 0 0 1.8 1 1 1 0 0 1 .6.8v1.4a4 4 0 0 0 .8 1.4.7.7 0 0 0 .6.4h1.5a.7.7 0 0 0 .7-.4 4 4 0 0 0 .7-1.4l.2-1.4a1 1 0 0 1 .6-.8 7.5 7.5 0 0 0 2-1 1 1 0 0 1 1-.2l1.2.6a4 4 0 0 0 1.5.2.7.7 0 0 0 .7-.4l.7-1.4a.7.7 0 0 0 0-.8 4 4 0 0 0-1-1.2l-1.2-.8a1 1 0 0 1-.4-1 7.6 7.6 0 0 0 0-2 1 1 0 0 1 .4-.8l1.2-1a4 4 0 0 0 1-1.2.7.7 0 0 0 0-.8L46 27a.7.7 0 0 0-.6-.5 4 4 0 0 0-1.5.2l-1.4.6a1 1 0 0 1-1-.2 7.5 7.5 0 0 0-2-1 1 1 0 0 1-.4-.7V24a4 4 0 0 0-.8-1.5.8.8 0 0 0-.6-.5h-1.6a.8.8 0 0 0-.7.5A4 4 0 0 0 35 24l-.2 1.3a1 1 0 0 1-.6.8 7.5 7.5 0 0 0-2 1.2 1 1 0 0 1-1 0l-1.2-.5a4 4 0 0 0-1.5-.2.7.7 0 0 0-.7.4L27 28a.7.7 0 0 0 0 .8 4 4 0 0 0 1 1.3l1 .8a1 1 0 0 1 .5 1 7.6 7.6 0 0 0 0 1 7.7 7.7 0 0 0 0 1 1 1 0 0 1-.4 1l-1 .8a4 4 0 0 0-1 1.2.7.7 0 0 0 0 .8l1 1.3a.7.7 0 0 0 .6.6 4 4 0 0 0 1.5-.2l1.4-.6a1 1 0 0 1 1 0z"/>
			<circle cx="16" cy="16" r="5.8"/>
			<circle cx="37" cy="33" r="3"/>
		</g>
	</symbol>

	<symbol id="icon-48_gift" viewBox="0 0 48 48">
		<g class="a">
			<path d="M43 28v14c0 1-1 2-2 2H26V28v16H11c-1 0-2-1-2-2V28M1 12s1.7-2 5-2c7.3 0 8.6 5 17 5h21c1 0 2 1 2 2v7H26v-9 9H6v-7c0-1 1-2 2-2h15"/>
			<path d="M30 12.5c0-1.4-1.8-2.5-4-2.5s-4 1-4 2.5 1.8 2.5 4 2.5 4-1 4-2.5zM23.3 10.6c-1.5-1.8-3.6-6.6-8-6.6-2 0-3.5 1-4.3 2"/>
			<path d="M28.7 10.6c1.5-1.8 3.6-6.6 8-6.6C40.5 4 42 6.7 42 9.3c0 2.3-1.6 5.7-7 5.7"/>
		</g>
	</symbol>

	<symbol id="icon-48_globe" viewBox="0 0 48 48">
		<g class="a">
			<circle cx="17.6" cy="17.6" r="16"/>
			<path d="M31 4.2L34.2 1l-1.7 1.7A21 21 0 1 1 2.8 32.4L4.2 31 1 34.2M25.6 46.6a4 4 0 0 0-4-4h-8a4 4 0 0 0-4 4h18"/>
		</g>
	</symbol>

	<symbol id="icon-48_hand-click" viewBox="0 0 48 48">
		<g class="a">
			<path d="M32 46c0-2 1-3 2.3-5.2 1.3-2.4 1.8-5.5 1.8-6.8v-8.5c0-1.4-1-2.5-2.4-2.5S31 24 31 25.5V28v-5.5c0-1.4-1-2.5-2.5-2.5S26 21 26 22.5V27v-5.5c0-1.4-1-2.5-2.5-2.5S21 20 21 21.5V26 12.5c0-1.4-1-2.5-2.5-2.5S16 11 16 12.5V32l-3-4c-.8-.7-2-1.3-3.4-.6-1.2.7-2 2.4-.8 4.2l4.4 6.5c1 1.5 2.3 3 3.4 4.2C18 43.8 18 45.4 18 46"/>
			<path d="M12.7 15.3c-1-1.3-1.7-3-1.7-4.8 0-4 3.4-7.5 7.5-7.5S26 6.4 26 10.5c0 1.8-.6 3.5-1.7 4.8"/>
		</g>
	</symbol>

	<symbol id="icon-48_handshake" viewBox="0 0 48 48">
		<path class="a" d="M47.2 20.8l-17-17M18.2 3l-17 17M28 7.4l-1.3 1.4c-2.8 2.8-9 .5-11.3 2.8l-5.7 5.7c-1.2 1.2-1.2 3 0 4.2 1.2 1.2 3 1.2 4.2 0l2-2c4.7 4.6 12.3 4.6 17 0l7 7 3.6-3.5-3.5 3.5 2.6 2.6c.5.7.8 1.5.7 2.3-.2 1.5-1.6 2.6-3 2.4-.8 0-1.2-.4-1.6-.7.7.7 1 1.7 1 2.4-.2 1.5-1.6 2.6-3 2.4-.8 0-1.4-.4-2-1 .4.3.7 1.3.6 2-.2 1.5-1.6 2.4-3 2.2-.8 0-1.8-.7-2.7-1.6.4.4.6 1.3.5 2 0 1.5-1.5 2.6-3 2.4-.6 0-1-.3-1.5-.7l-21-20.8M29.7 39.4L28 37.6M35 37l-3-3.2M38.8 33l-3-3M6 29.2c-.6 1-.4 2.5.5 3.4 1 1 2.3 1 3.4.6-.6 1-.4 2.5.5 3.4 1 1 2.3 1 3.4.6-.6 1-.4 2.5.5 3.4 1 1 2.3 1 3.4.6-.6 1-.4 2.5.5 3.4 1 1 2.3 1 3.4.6"/>
	</symbol>

	<symbol id="icon-48_happy-team" viewBox="0 0 48 48">
		<g class="a">
			<path d="M18.4 17.8S18 19 16 19s-2.4-1.2-2.4-1.2"/>
			<path d="M7 19l-1-1v-5.5C6 11 5 10 3.5 10S1 11 1 12.5V17c0 3 2.2 5.2 8 9v13c0 1 1 2 2 2h10c1 0 2-1 2-2V26c5.4-2 8-6 8-9v-4.5c0-1.4-1-2.5-2.5-2.5S26 11 26 12.5V18l-1 1"/>
			<path d="M28 28c0 1.3 1.7 3.8 4 5v6c0 1 1 2 2 2h7c1 0 2-1 2-2v-6c3-2.8 4-4.4 4-7v-4"/>
			<circle cx="37.5" cy="25.5" r="4.5"/>
			<circle cx="16" cy="17" r="6"/>
		</g>
	</symbol>

	<symbol id="icon-48_headset" viewBox="0 0 48 48">
		<g class="a">
			<circle cx="24" cy="44" r="3"/>
			<path d="M31 44a10 10 0 0 0 10-10h3a3 3 0 0 0 3-3v-9a3 3 0 0 0-3-3h-3c0-9.4-7.6-18-17-18S7 9.6 7 19H4a3 3 0 0 0-3 3v9a3 3 0 0 0 3 3h3V23"/>
		</g>
	</symbol>

	<symbol id="icon-48_heart" viewBox="0 0 48 48">
		<path class="a" d="M24 42C17 39 3 28 3 18 3 9.8 8.3 6 13 6c5.2 0 9.3 3.5 11 9 1.7-5.5 5.8-9 11-9 4.7 0 10 3.8 10 12 0 10-14 21-21 24zM14 11c-3.3 0-6 2.7-6 6"/>
	</symbol>

	<symbol id="icon-48_heartbeat" viewBox="0 0 48 48">
		<path class="a" d="M6.2 27c4.6 7 13 13 17.8 15 6-2.6 17.4-11 20.3-20H39l-4-8-6 17-4-9h-6l-3-5-3 11-3-5H4c-.6-1.7-1-3.3-1-5C3 9.8 8.3 6 13 6c5.2 0 9.3 3.5 11 9 1.7-5.5 5.8-9 11-9 4.7 0 10 3.8 10 12"/>
	</symbol>

	<symbol id="icon-48_holiday" viewBox="0 0 48 48">
		<g class="a">
			<circle cx="38" cy="10" r="4"/>
			<path d="M47 10h-2M31 10h-2M38 3V1M38 17v2M44.4 3.6L43 5M33 15l-1.4 1.4M33 5l-1.4-1.4M43 15l1.4 1.4M3 45s7.4-5 21-5c13 0 21 5 21 5M21.8 40l-6-15.3L2 30.2C-1 23 2.6 15 9.8 12s15.3.6 18.2 7.8l-12.3 5M9.6 9l1 2.7"/>
		</g>
	</symbol>

	<symbol id="icon-48_home" viewBox="0 0 48 48">
		<path class="a" d="M41 29v13c0 1-1 2-2 2h-9c-.5 0-1-.5-1-1v-9c0-.5-.5-1-1-1h-8c-.5 0-1 .5-1 1v9c0 .5-.5 1-1 1H9c-1 0-2-1-2-2V29M1.6 24.4L22 4c1.2-1.2 2.6-1.4 4 0l20.5 20.5c1 1-1.4 3.6-2.6 2.4L25.3 8.3C24 7 24 7 22.7 8.4L4 27c-1.3 1.3-3.6-1.4-2.4-2.6zM41 13V5c0-.6-.5-1-1-1h-7"/>
	</symbol>

	<symbol id="icon-48_hourglass" viewBox="0 0 48 48">
		<g class="a">
			<path d="M33 46c-1.3-6-5-10-8.5-10-3.6 0-7.2 4-8.5 10M17 13c2.2 1.7 5.3 4 7.5 4s5.5-2.3 7.5-4"/>
			<path d="M37 2v10c0 1.2-.7 3-1.7 4L30 21s-1 1.2-1 2.5.7 2 1 2.5 5.3 5.4 5.3 5.4c.8 1 1.7 2.4 1.7 3.6v11h3H9h3V35c0-1.2.8-2.7 1.7-3.6L19 26s1-1.2 1-2.5-.6-2-1-2.5l-5.3-5c-1-1.2-1.7-2.5-1.7-4V2H9h31"/>
		</g>
	</symbol>

	<symbol id="icon-48_image" viewBox="0 0 48 48">
		<g class="a">
			<path d="M45 37L34.4 26.3c-.4-.4-1-.4-1.4 0L30 29"/>
			<path d="M3 33v7c0 1 1 2 2 2h38c1 0 2-1 2-2V10c0-1-1-2-2-2H5c-1 0-2 1-2 2v23l12-11.7c.4-.4 1-.4 1.4 0L33 37.6"/>
			<circle cx="28" cy="18" r="3"/>
		</g>
	</symbol>

	<symbol id="icon-48_info" viewBox="0 0 48 48">
		<g class="a">
			<circle cx="24" cy="24" r="21"/>
			<circle cx="24" cy="14" r="4"/>
			<path d="M21 26v11h-2 10-2V23c0-.5-.5-1-1-1h-7"/>
		</g>
	</symbol>

	<symbol id="icon-48_key" viewBox="0 0 48 48">
		<g class="a">
			<path d="M30 21l14 14v7c0 .5-.5 1-1 1h-7v-5l-7-2v-5h-6v-3c-1.5.6-3.2 1-5 1-7.2 0-13-5.8-13-13S10.8 3 18 3s13 5.8 13 13c0 3.2-1.2 6-3 8.4L40 36.7"/>
			<circle cx="15" cy="14" r="3"/>
		</g>
	</symbol>

	<symbol id="icon-48_laptop" viewBox="0 0 48 48">
		<path class="a" d="M45 39H3c-1 0-2-1-2-2v-3h15l1 1h14l1-1h15v3c0 1-1 2-2 2zM3 30V9c0-1 1-2 2-2h38c1 0 2 1 2 2v21M13 12l-5 5M8 23l11-11"/>
	</symbol>

	<symbol id="icon-48_laptop-mobile" viewBox="0 0 48 48">
		<path class="a" d="M31 39H3c-1 0-2-1-2-2v-3h15l1 1h12l1-1h1M3 30V9c0-1 1-2 2-2h36c1 0 2 1 2 2v8M47 37H35V25h12-12v-2c0-1 1-2 2-2h8c1 0 2 1 2 2v16c0 1-1 2-2 2h-8c-1 0-2-1-2-2v-2"/>
	</symbol>

	<symbol id="icon-48_light-bulb" viewBox="0 0 48 48">
		<path class="a" d="M18 32c-2-4-7-7-7-15 0-7.2 5.8-13 13-13s13 5.8 13 13c0 8-5 11-7 15M30 35l-12 1M30 39l-12 1M20 43c.4 1.7 2 3 4 3s3.6-1.3 4-3M17 16c0-4 3-7 7-7"/>
	</symbol>

	<symbol id="icon-48_logo-exchange" viewBox="0 0 48 48">
		<g class="a">
			<path d="M19 27s-8.2-4.5-14-10c-1-1-2-2-2-4V5c0-1 1-2 2-2h8c1 0 1.8.7 3 2 1.4 1.6 3 5 3 5"/>
			<path d="M29 21s8.2 4.5 14 10c1 1 2 2 2 4v8c0 1-1 2-2 2h-8c-1 0-1.8-.7-3-2-1.4-1.6-3-5-3-5"/>
			<path d="M21 19s4.5-8.2 10-14c1-1 2-2 4-2h8c1 0 2 1 2 2v8c0 1-.7 1.8-2 3-1.6 1.4-5 3-5 3"/>
			<path d="M27 29s-4.5 8.2-10 14c-1 1-2 2-4 2H5c-1 0-2-1-2-2v-8c0-1 .7-1.8 2-3 1.6-1.4 5-3 5-3"/>
		</g>
	</symbol>

	<symbol id="icon-48_logo-fp" viewBox="0 0 48 48">
		<g class="a">
			<circle cx="32" cy="24" r="15"/>
			<path d="M32 39H3c-1 0-2-1-2-2V11c0-1 1-2 2-2h29v30z"/>
		</g>
	</symbol>

	<symbol id="icon-48_logo-intra" viewBox="0 0 48 48">
		<g class="a">
			<path d="M32 26v-8c1 .5 2.7 1 4 1 5 0 9-4 9-9s-4-9-9-9-9 4-9 9l-7 4"/>
			<path d="M23.2 26.7l7.3 4c-2 1.8-3.5 4.4-3.5 7.3 0 5 4 9 9 9s9-4 9-9c0-3-1.6-5.8-4-7.5V23"/>
			<path d="M27.3 19L20 23c-.4-4.5-4.3-8-9-8-5 0-9 4-9 9s4 9 9 9c1.7 0 3.4-.5 4.7-1.3L23 36"/>
		</g>
	</symbol>

	<symbol id="icon-48_magnifying-glass" viewBox="0 0 48 48">
		<g class="a">
			<circle cx="15" cy="15" r="14"/>
			<path d="M30.3 29.6a2 2 0 0 1 2.8 0l7.8 7.6-3.6 3.5 3.6-3.5 1.6 1.7a2 2 0 0 1 0 2.7l-.7.7a2 2 0 0 1-2.8 0L29.5 33a2 2 0 0 1 0-2.7l.3-.4-2.5-2.5L30 30zM6 15a9 9 0 0 1 9-9"/>
		</g>
	</symbol>

	<symbol id="icon-48_mail" viewBox="0 0 48 48">
		<g class="a">
			<path d="M45 24v11c0 1-1 2-2 2H5c-1 0-2-1-2-2V24"/>
			<path d="M3 11c0-1 1-2 2-2h38c1 0 2 1 2 2v6L27.4 29c-1.8 1.4-5 1.4-6.7 0L3 17v-6z"/>
		</g>
	</symbol>

	<symbol id="icon-48_mail-open" viewBox="0 0 48 48">
		<g class="a">
			<path d="M41 20l-13.6 9c-1.8 1.4-5 1.4-6.7 0L7 20"/>
			<path d="M3 35c0 1 1 2 2 2h38c1 0 2-1 2-2V19c0-3.3-1-3.8-2-4.4L27.4 4c-1.8-1.4-5-1.4-6.7 0L5 14.4C4.2 15 3 16 3 19v16z"/>
		</g>
	</symbol>

	<symbol id="icon-48_map-route" viewBox="0 0 48 48">
		<g class="a">
			<path d="M42 26l-4-4 2 2-2 2 4-4M24 10c0-5-4-9-9-9s-9 4-9 9 3.3 9.8 9 16c5.5-6 9-11 9-16z"/>
			<path d="M3.7 17L1 19v28l14-5 18 5 14-5V14l-14 4-6-1.7"/>
			<path d="M19.5 27C24 29 24.7 39 31 39c5.2 0 8.5-5.3 9-10M1 41s1.3-10.7 9-14"/>
			<circle cx="15" cy="10" r="3"/>
		</g>
	</symbol>

	<symbol id="icon-48_maze" viewBox="0 0 48 48">
		<g class="a">
			<path d="M17 45H5c-1 0-2-1-2-2V5c0-1 1-2 2-2h19"/>
			<path d="M24 10v21H10"/>
			<path d="M3 24h14v-7M45 24H31v14"/>
			<path d="M38 31v7H10M31 17h7"/>
			<path d="M10 18v-8h28V3h-7 12c1 0 2 1 2 2v38c0 1-1 2-2 2H22"/>
		</g>
	</symbol>

	<symbol id="icon-48_money" viewBox="0 0 48 48">
		<g class="a">
			<path d="M5.6 28.8l4.3-2.6M42.4 24.2L38 26.8"/>
			<path d="M33 7.7l1.3-1c1-.5 2.2-.2 2.7.8L46.7 24c.6 1 .3 2.2-.7 2.7l-32 19c-1 .7-2.3.4-2.8-.6l-10-16c-.5-1-.2-2.2.8-2.8l17.2-10.4"/>
			<circle cx="25" cy="10" r="4"/>
			<circle cx="13" cy="6" r="4"/>
			<circle cx="37" cy="42" r="4"/>
			<circle cx="24.5" cy="26.5" r="6.5"/>
		</g>
	</symbol>

	<symbol id="icon-48_mountain-peak" viewBox="0 0 48 48">
		<g class="a">
			<path d="M1 36l4-5 12 16M47 30l-4-5-10 13M19.7 25.7L23 29l3-3 3 3 3.4-3.4"/>
			<path d="M13 35l11.7-16.2a1.6 1.6 0 0 1 2.7 0L35 29"/>
			<path d="M26 18V1H11l4 4-4 4h15"/>
		</g>
	</symbol>

	<symbol id="icon-48_movie" viewBox="0 0 48 48">
		<g class="a">
			<path d="M9 5l6 6-6 6M20.2 5l6 6-6 6M31.2 5l6 6-6 6"/>
			<path d="M20.2 25l7.3 3.5c.6.3.6 1.2 0 1.5l-7.3 4c-.6.2-1.2-.2-1.2-1V26c0-.6.7-1 1.2-.7z"/>
			<path d="M2 7c0-1 1-2 2-2h38c1 0 2 1 2 2v34c0 1-1 2-2 2H4c-1 0-2-1-2-2V17h42H2v-6h42H2V7z"/>
		</g>
	</symbol>

	<symbol id="icon-48_muscle" viewBox="0 0 48 48">
		<path class="a" d="M4 30h2.4s7-6 13.6-6c5.7 0 9.3 3.5 11 7.2 0-11.5 1-18.5 1-19.2 0-1.3-.6-2-2-2s-4 1-6.5 1-4.5-.6-4.5-3c0-2.5 4-7 7-7 1.8 0 5-.6 11 5s7 22 7 25c0 4.3-1 8.5-1.8 9.6-1 1-4.8 6.4-20.2 6.4S3 40 3 40"/>
	</symbol>

	<symbol id="icon-48_network" viewBox="0 0 48 48">
		<path class="a" d="M32 19H15c-1 0-2-1-2-2V7c0-1 1-2 2-2h17c1 0 2 1 2 2v10c0 1-1 2-2 2zM11 43H5c-1 0-2-1-2-2v-4c0-1 1-2 2-2h6c1 0 2 1 2 2v4c0 1-1 2-2 2zM26 43h-6c-1 0-2-1-2-2v-4c0-1 1-2 2-2h6c1 0 2 1 2 2v4c0 1-1 2-2 2zM41 43h-6c-1 0-2-1-2-2v-4c0-1 1-2 2-2h6c1 0 2 1 2 2v4c0 1-1 2-2 2zM8 31v-3c0-.5.4-1 1-1h14v4-8 4h14c.5 0 1 .5 1 1v3M18 10h10M18 14h6"/>
	</symbol>

	<symbol id="icon-48_network-global" viewBox="0 0 48 48">
		<g class="a">
			<circle cx="24" cy="24" r="21"/>
			<circle cx="35" cy="17" r="3"/>
			<circle cx="16" cy="14" r="3"/>
			<circle cx="24" cy="32" r="3"/>
			<path d="M34 19.8c-1.8 3.8-4.4 7.3-7.6 10.4M36.6 7.2c0 2.3-.3 4.6-.8 7M18 11.8c3.3-3.4 7.6-6 12.8-7.6M21.6 33.8C18 36 14 37.8 9.6 39L9 39c-.8-9 1.2-16.3 5-22.4"/>
			<path d="M27 32.8c5 1.2 10.5 1.6 15.6 1C28.2 29.6 22.6 19.6 22 3M4 18C7.6 24 14 28.2 21 31"/>
		</g>
	</symbol>

	<symbol id="icon-48_newspaper" viewBox="0 0 48 48">
		<g class="a">
			<path d="M7 41h35c3.3 0 5-2.7 5-6V13c0-1-1-2-2-2H15c-1 0-2 1-2 2v22c0 3.3-2.7 6-6 6s-6-2.7-6-6V8c0-1.7 1.3-3 3-3s3 1.3 3 3v27M4 5h35c1 0 2 1 2 2"/>
			<path d="M19 18h9v15h-9zM32 18h8M32 23h5M32 33h5M32 28h9"/>
		</g>
	</symbol>

	<symbol id="icon-48_notes" viewBox="0 0 48 48">
		<path class="a" d="M13 36h12M13 30h17M13 24h24M13 18h21M41 5c1 0 2 1 2 2v37c0 1-1 2-2 2H9c-1 0-2-1-2-2V7c0-1 1-2 2-2h4V2v6-3h6V2v6-3h6V2v6-3h6V2v6-3h6V2v6-3h4z"/>
	</symbol>

	<symbol id="icon-48_package" viewBox="0 0 48 48">
		<g class="a">
			<path d="M14 4.7l20 10.7v4.8l-6 3.2v-5.2L8.3 7.8"/>
			<path d="M34 15.4l7-3.8L21 1 1 11.6l20 10.6 7-4M4.5 18.7l5.7 3M4.5 23.4l5.7 3"/>
			<path d="M41 11.4v23.8L21 45.4v-23 23L1 35.2V11.4"/>
		</g>
	</symbol>

	<symbol id="icon-48_package-open" viewBox="0 0 48 48">
		<g class="a">
			<path d="M24 9L7 18l17 9 17-9zM41 33v5l-17 9-17-9v-5M24 27v20"/>
			<path d="M24 9l-6-7.6c-.3-.4-1-.5-1.6-.2l-15 8c-.4.3-.5 1-.2 1.4L7 18l-5.5 5.8c-.5.5-.4 1.3.2 1.6L16 33.6c.5.3 1.5.3 2-.2l6-6.4 6 6.4c.5.5 1.4.5 2 .2l14.3-8.2c.5-.3.7-1 .2-1.6L41 18l5.8-7.4c.3-.4.2-1-.3-1.3l-15-8c-.4-.4-1-.3-1.5 0L24 9z"/>
		</g>
	</symbol>

	<symbol id="icon-48_padlock" viewBox="0 0 48 48">
		<g class="a">
			<circle cx="24" cy="31" r="3"/>
			<path d="M24 34v3M31 18v-3c0-4-3-7-7-7s-7 3-7 7v3"/>
			<path d="M13 18v-3c0-6 5-11 11-11s11 5 11 11v3M9 23c0-.5.4-1 1-1h28c.5 0 1 .5 1 1v15c0 3.3-2.7 6-6 6H15c-3.3 0-6-2.7-6-6V23z"/>
		</g>
	</symbol>

	<symbol id="icon-48_padlock-open" viewBox="0 0 48 48">
		<g class="a">
			<circle cx="24" cy="31" r="3"/>
			<path d="M24 34v3M17 18v-3c0-4 3-7 7-7 2 0 3.7.8 5 2l3-2.5C30 5.3 27.2 4 24 4c-6 0-11 5-11 11v3M9 23c0-.5.4-1 1-1h28c.5 0 1 .5 1 1v15c0 3.3-2.7 6-6 6H15c-3.3 0-6-2.7-6-6V23z"/>
		</g>
	</symbol>

	<symbol id="icon-48_paint-bucket" viewBox="0 0 48 48">
		<g class="a">
			<path d="M31 35H17c-.5 0-1-.5-1-1v-2c0-.5.5-1 1-1h14c.5 0 1 .5 1 1v2c0 .5-.5 1-1 1z"/>
			<path d="M32 33c8.3-2 14-9.7 14-19 0-.6-.5-1-1-1h-4V5v38c0 1-1 2-2 2H9c-1 0-2-1-2-2V33"/>
			<path d="M16 33C7.8 31 2 23.3 2 14c0-.6.5-1 1-1h4V9v18.6M14 5v9c0 1.7 1.3 3 3 3s3-1.3 3-3 1.3-3 3-3 3 1.3 3 3v3c0 1 1 2 2 2s2-1 2-2v-5c0-1 1-2 2-2 1.6 0 2 2 4 2s4.4-1.7 5-4V5h1H6"/>
		</g>
	</symbol>

	<symbol id="icon-48_paint-roller" viewBox="0 0 48 48">
		<g class="a">
			<path d="M31.4 11.6L11.6 31.4c-.8.8-2 .8-2.8 0l-7.2-7.2c-.8-.8-.8-2 0-2.8L21.4 1.6c.8-.8 2-.8 2.8 0l7.2 7.2c.8.8.8 2 0 2.8z"/>
			<path d="M30.6 30.6l-.8-.8c-1-1-1-2.3-.4-3.2L37.6 11c.5-1 .7-2.4-.3-3.3L33 3.3c-.8-.8-1.3-1.5-2-.7M46.4 45L45 46.4c-.8.8-2 .8-2.8 0l-9.6-9.6c-.8-.8-.8-2 0-2.8l1.4-1.4c.8-.8 2-.8 2.8 0l9.6 9.6c.8.7.8 2 0 2.8z"/>
		</g>
	</symbol>

	<symbol id="icon-48_pencil-ruler" viewBox="0 0 48 48">
		<g class="a">
			<path d="M44.7 11.8c.4-.4.4-1 0-1.4l-7-7c-.5-.5-1-.5-1.5 0L3.2 36c-.3.4-.3 1 0 1.4l7.2 7c.4.5 1 .5 1.4 0l2.7-2.6-2.3-2.2 2.3 2.2 4.5-4.5-3.3-3.2 3.3 3.2 4.3-4.3L21 31l2.2 2.2 5-5L25 25l3.2 3.2 5-5-2.4-2 2.3 2 4.7-4.5-3.2-3.2 3.2 3.2 4.5-4.5L40 12l2.2 2.2 2.5-2.4zM27.2 35.2L34 42l8-8-6.8-6.8M20.8 12.8l-8-8-8 8 8 8"/>
			<path d="M31.2 31.2L38 38l-4 4 11 3-3-11M12.7 4.7c-2.2-2.2-5.8-2.2-8 0s-2.2 5.8 0 8l4-4 8 8"/>
		</g>
	</symbol>

	<symbol id="icon-48_person-disabled" viewBox="0 0 48 48">
		<g class="a">
			<circle cx="11.5" cy="5.5" r="4.5"/>
			<path d="M8,22l2,2c0,0,1.4,1.6,0,3c-1.4,1.4-3,0-3,0s-4.2-4.1-5-5s-1.2-1.8,0-3s5.2-5,5.2-5c0.7-0.7,1.7-1,2.8-1 c2.2,0,4,1.8,4,4v9c0,1.1,0.9,2,2,2c0,0,4.5,0,6,0s2.5,0.5,3,2s3.6,9.9,4,11.1c0.4,1.2-0.5,2.9-2.3,2.9c-2.4,0-3.2-2-3.2-2 c-2.3,3-5.9,5-10,5C6.6,47,1,41.4,1,34.5c0-2.4,0.7-4.6,1.8-6.5"/>
			<path d="M22,34.5c0,4.7-3.8,8.5-8.5,8.5S5,39.2,5,34.5c0-1.7,0.5-3.2,1.3-4.5"/>
		</g>
	</symbol>

	<symbol id="icon-48_person-man" viewBox="0 0 48 48">
		<g class="a">
			<path d="M32 13c2.2 0 4 1.8 4 4v10c0 2.2-1.8 4-4 4V18v26c0 1.7-1.3 3-3 3s-3-1.3-3-3V29v15c0 1.7-1.3 3-3 3s-3-1.3-3-3V18v13c-2.2 0-4-1.8-4-4V17c0-2.2 1.8-4 4-4"/>
			<circle cx="26" cy="6" r="5"/>
		</g>
	</symbol>

	<symbol id="icon-48_person-woman" viewBox="0 0 48 48">
		<g class="a">
			<circle cx="12.4" cy="6" r="5"/>
			<path d="M8.1,19.9L3.8,31.3C2.9,33.4,3.9,35,5.6,35h1.9v9.5c0,1.4,1.1,2.5,2.5,2.5s2.5-1.1,2.5-2.5V36v8.5 c0,1.4,1.1,2.5,2.5,2.5s2.5-1.1,2.5-2.5c0,0,0-9.5,0-9.5h1.9c1.6,0,2.6-1.6,1.8-3.7l-4.3-11.5"/>
			<path d="M17.4,14c0.8,0,1.5,0.6,2,1.7l4.2,10.5c0.8,1.9-0.7,2.7-1.7,2.7s-1.7,0-1.7,0"/>
			<path d="M7.4,14c-0.8,0-1.5,0.6-2,1.7L1.2,26.3C0.4,28.2,2,29,2.9,29s1.7,0,1.7,0"/>
		</g>
	</symbol>

	<symbol id="icon-48_phone-mobile" viewBox="0 0 48 48">
		<path class="a" d="M22 42h4M37 38H11v6c0 1.1.9 2 2 2h22c1.1 0 2-.9 2-2V8H11h26V4c0-1.1-.9-2-2-2H13c-1.1 0-2 .9-2 2v34M19 13l-3 3M16 22l9-9"/>
	</symbol>

	<symbol id="icon-48_photo-camera" viewBox="0 0 48 48">
		<g class="a">
			<path d="M45 38c0 1-1 2-2 2H5c-1 0-2-1-2-2V18h8-8v-2c0-1 1-2 2-2h10l1.6-2.6c.5-.8 1.7-1.4 2.8-1.4h10c1 0 2.3.6 2.8 1.4L34 14h9c1 0 2 1 2 2v2h-8 8v20z"/>
			<path d="M43 11h-5"/>
			<circle cx="24" cy="26" r="11"/>
			<circle cx="24" cy="26" r="7"/>
		</g>
	</symbol>

	<symbol id="icon-48_piggybank" viewBox="0 0 48 48">
		<path class="a" d="M16 12.5a24.5 24.5 0 0 1 8-1.5c10 0 15 7.5 15 13a11 11 0 0 1-3.2 7.6A19 19 0 0 0 35 40h-7l-1-3.6a12.7 12.7 0 0 1-8 0L16.8 40H11s3.2-9.3-10-9.6v-7l4-1a17.7 17.7 0 0 1 2-5A19 19 0 0 0 3 11s8.2-3 13 1.5zM39 23c5-.7 7-4 7-5.5a2.4 2.4 0 0 0-2.5-2.5 2.4 2.4 0 0 0-2.5 2.5c0 2 2.2 4.3 6 4.5M22 7a7.3 7.3 0 0 1 7-6 7.3 7.3 0 0 1 7 7.4 7 7 0 0 1-.5 2.4"/>
	</symbol>

	<symbol id="icon-48_play" viewBox="0 0 48 48">
		<g class="a">
			<circle cx="24" cy="24" r="21"/>
			<path d="M19 19v12c0 2.5 1.8 2 2.5 1.6l11-7.6c.7-.6.7-1.5 0-2L21 15"/>
		</g>
	</symbol>

	<symbol id="icon-48_poland" viewBox="0 0 48 48">
		<path class="a" d="M22 7h19a1.3 1.3 0 0 1 1.2 1c1 2.3 3.4 9 3.6 9.6a1.5 1.5 0 0 1-.2 1.6l-2.3 2.4a1.6 1.6 0 0 0-.2 1.6L47 33a3 3 0 0 1 0 2l-4.4 11a1.7 1.7 0 0 1-1.8 1L29 46a4.3 4.3 0 0 1-2-.5L4 31.5a1.8 1.8 0 0 1-1-1.6L1 9a1.3 1.3 0 0 1 1-1.3c.5-.2 14.5-5.3 18.2-6.5a3.6 3.6 0 0 1 1.8 0l7 1.3"/>
	</symbol>

	<symbol id="icon-48_poo" viewBox="0 0 48 48">
		<path class="a" d="M8 36H6.5c-3 0-5.5 2.5-5.5 5.5S3.5 47 6.5 47h35c3 0 5.5-2.5 5.5-5.5S44.5 36 41.5 36H27h14c.8-1 1-2.2 1-3.5 0-3-2.4-5.5-5.5-5.5h-1.8c.8-1 1.3-2.2 1.3-3.5 0-3-2.5-5.5-5.5-5.5H25s-4-1.2-4-4 2-4 2-4c-6 0-11 5.4-11 12 0 1.8.4 3 1 5h5-6.5c-3 0-5.5 2.5-5.5 5.5 0 1.3.8 2.5 1.6 3.5"/>
		<g class="b">
			<circle cx="34" cy="10" r="1"/>
			<circle cx="45" cy="3" r="1"/>
			<circle cx="5" cy="5" r="1"/>
		</g>
	</symbol>

	<symbol id="icon-48_presentation-chart" viewBox="0 0 48 48">
		<g class="a">
			<path d="M44 11v23c0 1-1 2-2 2H27c-1 0-1.4.6-.6 1.4l5.2 5.2c.8.8.8.8 0 0l-5.2-5.2c-.8-.8-2-.8-2.8 0l-5.2 5.2c-.8.8-.8.8 0 0l5.2-5.2c.8-.8.5-1.4-.6-1.4H6c-1 0-2-1-2-2V11M46 7H2c-.5 0-1-.4-1-1V3c0-.5.5-1 1-1h44c.5 0 1 .5 1 1v3c0 .6-.5 1-1 1z"/>
			<path d="M11 30l4-5 4 2 6-8 4 4 7.8-7.8"/>
			<path d="M30 15h6.2c.5 0 .8 0 .8.5V22M25 46V36"/>
		</g>
	</symbol>

	<symbol id="icon-48_printer" viewBox="0 0 48 48">
		<g class="a">
			<path d="M40 30H8h3v14c0 .5.4 1 1 1h24c.5 0 1-.5 1-1V30"/>
			<path d="M7 36H4c-1 0-2-1-2-2V18c0-1 1-2 2-2h40c1 0 2 1 2 2v16c0 1-1 2-2 2h-3M37 12V5c0-1-1-2-2-2H18l-7 7v2-2h6c.5 0 1-.4 1-1V3M16 35h16M16 39h13"/>
		</g>
		<g class="b">
			<circle cx="42" cy="20" r="1"/>
			<circle cx="38" cy="20" r="1"/>
		</g>
	</symbol>

	<symbol id="icon-48_puzzle" viewBox="0 0 48 48">
		<g class="a">
			<path d="M22 1h19a2 2 0 0 1 2 2v19h-6v-2a4 4 0 0 0-8 0v2H16v2a4 4 0 0 1-8 0v-2H1"/>
			<path d="M22 43v-6h2a4 4 0 0 0 0-8h-2V16h-2a4 4 0 0 1 0-8h2V1H3a2 2 0 0 0-2 2v38a2 2 0 0 0 2 2h38a2 2 0 0 0 2-2V22"/>
		</g>
	</symbol>

	<symbol id="icon-48_quality" viewBox="0 0 48 48">
		<g class="a">
			<path d="M43.3 38.2c1 1 1 2.5 0 3.4l-1.7 1.7c-1 1-2.5 1-3.4 0L35 40M37 23c0-7.6-6.4-14-14-14S9 15.4 9 23s6.4 14 14 14c2.5 0 4.8-1 6.8-2"/>
			<path  d="M35 40c-3.4 2.5-7.5 4-12 4-11.5 0-21-9.5-21-21S11.5 2 23 2s21 9.5 21 21c0 3.7-1 7-2.7 10-.8 1.3-2 1-3 .2l-6.6-6.6c-1-1-2.5-1-3.4 0l-1.7 1.7c-1 1-1 2.5 0 3.4l3 3"/>
		</g>
	</symbol>

	<symbol id="icon-48_quotes" viewBox="0 0 48 48">
		<path class="a" d="M37 22.4c0 5.5-2.2 8.6-8.7 8.6a1 1 0 0 0-1.3 1v4a1 1 0 0 0 1.3 1C41 37 47 30 47 17V3a2 2 0 0 0-2-2H29a2 2 0 0 0-2 2v16a2 2 0 0 0 2 2h8zM11 22.4C11 28 8.8 31 2.3 31A1 1 0 0 0 1 32v4a1 1 0 0 0 1.3 1C15 37 21 30 21 17V3a2 2 0 0 0-2-2H3a2 2 0 0 0-2 2v16a2 2 0 0 0 2 2h8z"/>
	</symbol>

	<symbol id="icon-48_refresh" viewBox="0 0 48 48">
		<path class="a" d="M42.8 21c.2 1 .2 2 .2 3 0 10.5-8.5 19-19 19-5.2 0-10-2.1-13.4-5.6l-4.3 4.3c-.5.5-1.3.2-1.3-.4V33c0-.6.4-1 1-1h8.3c.6 0 1 .8.5 1.2l-4.2 4.2M5.2 27c-.1-1-.2-2-.2-3C5 13.5 13.5 5 24 5c5.2 0 10 2.1 13.4 5.6l4.3-4.3c.5-.5 1.3-.2 1.3.4V15c0 .6-.4 1-1 1h-8.3c-.6 0-1-.8-.5-1.2l4.2-4.2"/>
	</symbol>

	<symbol id="icon-48_rocket" viewBox="0 0 48 48">
		<g class="a">
			<path d="M30 38s3-7 3-16-4.6-17.2-9-21c-4.4 3.8-9 12-9 21s3 16 3 16h12z"/>
			<path d="M18 9h12M28 42c0 1.4-2.5 4.4-4 5M20 42c0 1.5 2.3 4.4 4 5M37 27c1.3 1.8 2 5.2 2 8s-1 6.5-2 8c-1-3.2-3-5-3-5M11 27c-1.3 1.8-2 5.2-2 8s1 6.5 2 8c1-3.2 3-5 3-5"/>
			<circle cx="24" cy="17" r="4"/>
		</g>
	</symbol>

	<symbol id="icon-48_scale" viewBox="0 0 48 48">
		<g class="a">
			<path d="M36 25l4-11 4 11M47 28c0 4-3.3 7-7 7s-7-3-7-7h14zM12 25L8 14 4 25M1 28c0 4 3.3 7 7 7s7-3 7-7H1zM4 10c0 1 1 3 3.7 3 5.4 0 6-5 16.3-5s10.8 5 16.3 5c2.6 0 3.8-2 3.8-3M24 4V2"/>
			<path d="M24 8v33h4c2.2 0 4 1.8 4 4h2-20 2c0-2.2 1.8-4 4-4h4"/>
		</g>
	</symbol>

	<symbol id="icon-48_scissors" viewBox="0 0 48 48">
		<g class="a">
			<path d="M9.2 41L37 1a6.4 6.4 0 0 1 2.2 8.2L28.7 29.7a5.7 5.7 0 0 1-7.7 2"/>
			<path d="M20.8 24.4L5 1a6.4 6.4 0 0 0-2.3 8.2l9.6 18.6M33 41l-7-9"/>
			<circle cx="5.5" cy="38.5" r="4.5"/>
			<circle cx="36.5" cy="38.5" r="4.5"/>
		</g>
	</symbol>

	<symbol id="icon-48_server" viewBox="0 0 48 48">
		<g class="a">
			<path d="M5 16h38M5 30h38"/>
			<path d="M43 20v10M5 16V4c0-1 1-2 2-2h34c1 0 2 1 2 2v12M5 30V20M5 34v8c0 1 1 2 2 2h2v2c0 .5.4 1 1 1h7c.5 0 1-.5 1-1v-2H9h21v2c0 .5.5 1 1 1h7c.5 0 1-.5 1-1v-2h-9 11c1 0 2-1 2-2v-8"/>
			<circle cx="13" cy="9" r="3"/>
			<circle cx="13" cy="23" r="3"/>
			<circle cx="13" cy="37" r="3"/>
		</g>
		<g class="b">
			<circle cx="37" cy="21" r="1"/>
			<circle cx="33" cy="21" r="1"/>
			<circle cx="29" cy="21" r="1"/>
			<circle cx="37" cy="7" r="1"/>
			<circle cx="33" cy="7" r="1"/>
			<circle cx="29" cy="7" r="1"/>
			<circle cx="37" cy="35" r="1"/>
			<circle cx="33" cy="35" r="1"/>
			<circle cx="29" cy="35" r="1"/>
		</g>
	</symbol>

	<symbol id="icon-48_share" viewBox="0 0 48 48">
		<g class="a">
			<circle cx="10" cy="26" r="6"/>
			<circle cx="38" cy="13" r="6"/>
			<circle cx="38" cy="39" r="6"/>
			<path d="M18.4 21l14-6M15 29.4l13.3 6"/>
		</g>
	</symbol>

	<symbol id="icon-48_shirt-folded" viewBox="0 0 48 48">
		<g class="a">
			<path d="M38 8h2c1 0 2 1 2 2v20H32h10v14c0 1-1 2-2 2H24V16v30H8c-1 0-2-1-2-2V10c0-1 1-2 2-2h2"/>
			<path d="M14 5.5c0-2 4.5-3.5 10-3.5s10 1.6 10 3.5V21s-6.3-2.2-10-5S14 6 14 6v15s6-2 10-5S34 6 34 6"/>
		</g>
	</symbol>

	<symbol id="icon-48_slide-projector" viewBox="0 0 48 48">
		<g class="a">
			<path d="M31 45H4c-1 0-2-1-2-2V23c0-1 1-2 2-2h27c1 0 2 1 2 2v20c0 1-1 2-2 2zM36 38l7 4c2 1.2 2-.5 2-1V25c0-.5 0-2.2-2-1l-7 4"/>
			<circle cx="11" cy="10" r="7"/>
			<circle cx="26" cy="13" r="4"/>
		</g>
		<circle class="b" cx="7" cy="26" r="1"/>
	</symbol>

	<symbol id="icon-48_sliders" viewBox="0 0 48 48">
		<g class="a">
			<path d="M37 20v16M37 4v5"/>
			<circle cx="37" cy="13" r="3"/>
			<path d="M23 32v4M23 4v17"/>
			<circle cx="23" cy="25" r="3"/>
			<path d="M9 24v12M9 4v9"/>
			<circle cx="9" cy="17" r="3"/>
			<path d="M10 44H8c-.6 0-1-.5-1-1v-2c0-.5.4-1 1-1h2c.6 0 1 .5 1 1v2c0 .5-.4 1-1 1zM24 44h-2c-.5 0-1-.5-1-1v-2c0-.5.5-1 1-1h2c.5 0 1 .5 1 1v2c0 .5-.5 1-1 1zM38 44h-2c-.5 0-1-.5-1-1v-2c0-.5.5-1 1-1h2c.5 0 1 .5 1 1v2c0 .5-.5 1-1 1z"/>
		</g>
	</symbol>

	<symbol id="icon-48_spa" viewBox="0 0 48 48">
		<g class="a">
			<path d="M14 30.7C6.4 27 1 28.3 1 28.3s1.8 7 9.6 10.6c7.8 3.6 13.4 1.3 13.4 1.3s-2.2-6-10-9.6zM34 30.7c-8 3.7-10 9.6-10 9.6s5.6 2.3 13.4-1.4C45.2 35 47 28.2 47 28.2s-5.3-1.3-13 2.4z"/>
			<path d="M42.4 23.6c1-3.7.4-7.6.4-7.6s-3.8 0-7.3 1.7M5.6 23.6c-1-3.6-.4-7.6-.4-7.6s3.8 0 7.3 1.7M28.5 34.2c2-1.7 3.5-6 3.5-10.2 0-9.7-8-19-8-19s-8 9.2-8 19c0 4.4 1 8 3.5 10.2"/>
		</g>
	</symbol>

	<symbol id="icon-48_speech-bubble" viewBox="0 0 48 48">
		<g class="a">
			<path d="M16 44.5L28 36h16c1 0 2-1 2-2V6c0-1-1-2-2-2H4C3 4 2 5 2 6v28c0 1 1 2 2 2h8s1 6.7 1.4 8c.2 1.2 1.6 1.3 2.6.5z"/>
			<circle cx="14" cy="20" r="2"/>
			<circle cx="24" cy="20" r="2"/>
			<circle cx="34" cy="20" r="2"/>
		</g>
	</symbol>

	<symbol id="icon-48_speech-bubbles" viewBox="0 0 48 48">
		<g class="a">
			<path d="M20 34h10l8 6 2-6h5c1 0 2-1 2-2V15c0-1-1-2-2-2H20c-1 0-2 1-2 2v17c0 1 1 2 2 2z"/>
			<path d="M14 29l-6 4-2-6H3c-1 0-2-1-2-2V8c0-1 1-2 2-2h24c1 0 2 1 2 2v1"/>
			<circle cx="26.5" cy="23.5" r="1.5"/>
			<circle cx="32.5" cy="23.5" r="1.5"/>
			<circle cx="38.5" cy="23.5" r="1.5"/>
		</g>
	</symbol>

	<symbol id="icon-48_sport-cup" viewBox="0 0 48 48">
		<g class="a">
			<path d="M10 8c0 13.3 5.7 24 14 24S38 21.3 38 8V4c0-.5-.5-1-1-1H11c-.6 0-1 .5-1 1v4z"/>
			<path d="M16 45c0-2.2 1.8-4 4-4h6-4l-2-10M32 45c0-2.2-1.8-4-4-4h-2l2-10M34 45H14M6 7H4c-.5 0-1 .4-1 1v3c0 4 2 6.4 4 8M42 7h2c.5 0 1 .4 1 1v3c0 4-2 6.5-4 8"/>
		</g>
	</symbol>

	<symbol id="icon-48_star" viewBox="0 0 48 48">
		<path class="a" d="M35.6 23.3l8-5.6c1-1 .6-2.4-1-2.4h-12c-2 0-2.6 0-3.2-1.7L23.7 1.8a1.2 1.2 0 0 0-2.2-.2l-3.7 12c-.6 1.6-1.2 1.7-3 1.7H2.5c-1.7 0-2.2 1.5-1 2.4l10.3 7a2.3 2.3 0 0 1 1 3.2L9 39c-.5 1.5.3 2.4 1.7 1.4l9.5-7a4.2 4.2 0 0 1 4.2 0l9.5 7c1.4 1 2.3 0 1.8-1.5l-5.4-17.7"/>
	</symbol>

	<symbol id="icon-48_steering-wheel" viewBox="0 0 48 48">
		<g class="a">
			<circle cx="24" cy="24" r="22"/>
			<circle cx="24" cy="24" r="3"/>
			<path d="M41.8 21c-1.5-8.5-9-15-17.8-15S7.7 12.5 6.2 21c0 0 6.2-4 17.8-4s17.8 4 17.8 4z"/>
			<path d="M28 37c2-5.6 7.4-9.7 13.8-10C40.4 35.5 33 42 24 42S7.8 35.5 6.4 27c6.3.3 11.7 4.4 13.8 10"/>
		</g>
	</symbol>

	<symbol id="icon-48_student" viewBox="0 0 48 48">
		<g class="a">
			<path d="M1 19l23 9 23-9-23-9z"/>
			<path d="M25 19l-12 4.7V37h-1c-.6 0-1 .3-1 .7l-1 6c0 .7.5 1.3 1.3 1.3h3.3c.8 0 1.4-.7 1.3-1.4l-1-6c0-.3-.5-.6-1-.6h-1"/>
			<path d="M17 34c2 .5 4.5 1 7 1 8.3 0 15-2.7 15-6v-7M9 22.2V29c0 .8.4 1.5 1 2.2.7.7 1.7 1.4 3 2"/>
		</g>
	</symbol>

	<symbol id="icon-48_tasks" viewBox="0 0 48 48">
		<g class="a">
			<path d="M17 4h-7C9 4 8 5 8 6v39c0 1 1 2 2 2h30c1 0 2-1 2-2V6c0-1-1-2-2-2h-7"/>
			<path d="M14 18l2 2 3-3M24 19h10M14 27l2 2 3-3M24 28h12M14 36l2 2 3-3M24 37h8"/>
			<path d="M15 9h20"/>
			<circle cx="25" cy="5" r="4"/>
		</g>
	</symbol>

	<symbol id="icon-48_task-add" viewBox="0 0 48 48">
		<g class="a">
			<path d="M36 26V6c0-1-1-2-2-2h-7M11 4H4C3 4 2 5 2 6v39c0 1 1 2 2 2h16"/>
			<path d="M8 18l2 2 3-3M18 19h9M8 27l2 2 3-3M18 28h12M8 36l2 2 3-3M18 37h5"/>
			<circle cx="19" cy="5" r="4"/>
			<path d="M9 9h20"/>
			<path d="M44.5 30L41 26.5l-16 16-.2.6-.8 4 4-.8c.2 0 .4 0 .6-.3L46.3 28c1-1 1-2.5 0-3.5s-2.6-1-3.5 0L41 26.5"/>
		</g>
	</symbol>

	<symbol id="icon-48_thumb-up" viewBox="0 0 48 48">
		<path class="a" d="M40 41c1 0 2-1 2-2V19c0-1-1-2-2-2s-2 1-2 2v20c0 1 1 2 2 2zM34 39l-7 3H13.6c-1 0-1.7-.7-2-1.6L8.2 24c-.2-1.6 1-3.2 2.5-3.4L22 19V9.7c0-2 1.4-3.6 3.3-3.7 2 0 3.7 1.5 3.7 3.5v4.7c0 .5.2 1 .6 1.4L33 19h1"/>
	</symbol>

	<symbol id="icon-48_thunder" viewBox="0 0 48 48">
		<path class="a" d="M21 17h6L1 47l8-21H2l8-25h18L14 19"/>
	</symbol>

	<symbol id="icon-48_timer" viewBox="0 0 48 48">
		<g class="a">
			<path d="M8 6h7.3c.5 0 .7.2.7.6v7c0 .4-.5.6-.8.3L8 6.5c-.5-.2-.3-.6 0-.6z"/>
			<path d="M11.2 10C7.4 13.5 5 18.4 5 24c0 10.5 8.5 19 19 19s19-8.5 19-19S34.5 5 24 5"/>
			<path d="M33 33l-7.6-7.6M24 22v-9"/>
			<circle cx="24" cy="24" r="2"/>
		</g>
	</symbol>

	<symbol id="icon-48_timer-backwards" viewBox="0 0 48 48">
		<g class="a">
			<path d="M40 6h-7.3c-.5 0-.7.2-.7.6v7c0 .4.5.6.8.3L40 6.5c.5-.2.3-.6 0-.6z"/>
			<path d="M36.8 10c3.8 3.5 6.2 8.5 6.2 14 0 10.5-8.5 19-19 19S5 34.5 5 24 13.5 5 24 5"/>
			<path d="M33 33l-7.6-7.6M24 22v-9"/>
			<circle cx="24" cy="24" r="2"/>
		</g>
	</symbol>

	<symbol id="icon-48_tools" viewBox="0 0 48 48">
		<path class="a" d="M19 22.8l7 7-.7.7c-.8.8-.8 2 0 2.8.5.5 1.3.7 2 .5l7.8 8c1.7 1.5 4.2 1.6 5.8 0s1.5-4.2 0-5.8l-8-8c.2-.6 0-1.3-.5-1.8-.8-.8-2-.8-2.8 0l-.7.8L14 12l-1.4-4-6.4-3.7-2.8 3L7 13.5l4 1.4 8 7.8-15 15c-1.3 1.3-1.3 3.2-.2 4.3 1.2 1.3 3 1.3 4.3 0l15.2-15M25 17l3-3.2c1.4-1.4 1-2.3 1-3.7 0-1.6.7-3.5 2-5 2-2 4.8-2.4 7.3-1.5l-3.8 3.8c-.4.4-.4 1 0 1.4l2.8 2.8c.4.4 1 .4 1.4 0l3.8-3.8c1 2.5.3 5.3-1.6 7.3-1.4 1.3-3.4 2-5 2s-2.5-.3-3.8 1l-3 3"/>
	</symbol>

	<symbol id="icon-48_trainer" viewBox="0 0 48 48">
		<g class="a">
			<path d="M35.4 14.3C36 17 38.4 18 40 18c.6 0 1-.4 1-1s.7-10-9-10-9 9.4-9 10 .5 1 1 1c7.2 0 10.7-1.7 15-8M24 18c0 4.2 1 11 8 11s8-6.3 8-11M19 12H3c-1 0-2 1-2 2v30c0 1 1 2 2 2h15"/>
			<path d="M8 36c.6 1 2 2 3.5 2H20c1 0 2 1 2 2v6h20v-7 7h3c1 0 2-1 2-2v-4.6c0-3-.3-4.4-4-5.4-.5 0-1.3-.4-2.4-.7-1.6-.5-2-1.3-2.3-1.6-.3-.3-.6-.2-1 0L32 36l-5.5-4.4c-.2-.2-.6-.2-1 0C25.4 32 23 33 21 33H5"/>
		</g>
	</symbol>

	<symbol id="icon-48_trash-can" viewBox="0 0 48 48">
		<path class="a" d="M17 18v23M24 18v23M31 18v23M9 15v30c0 1 1 2 2 2h26c1 0 2-1 2-2V15M29 5V3c0-1-1-2-2-2h-6c-1 0-2 1-2 2v2H8C7 5 6 6 6 7v2c0 1 1 2 2 2h32c1 0 2-1 2-2V7c0-1-1-2-2-2H19"/>
	</symbol>

	<symbol id="icon-48_two-way" viewBox="0 0 48 48">
		<path class="a" d="M27 10H16V4c0-1-1.3-1-1.6-.7l-13 13c-.5.4-.5 1 0 1.3l13 13c.4.5 1.6.4 1.6-.7v-5h16v-6c0-1.4 1.3-1.4 1.6-1l13 13c.5.5.5 1 0 1.4l-13 13.2c-.3.3-1.6.3-1.6-.8v-5H21"/>
	</symbol>

	<symbol id="icon-48_user" viewBox="0 0 48 48">
		<path class="a" d="M30 8.6c0 3.8 3.5 6.4 5 6.4.6 0 1-.4 1-1s.4-12-11-12-11 11.4-11 12 .5 1 1 1c8.2 0 12.7-3.3 18.1-9.9M15 15c0 4.2 1.8 14 10 14s10-9.3 10-14M35 39v7M15 39v7M25 36s-5.2-4.2-5.5-4.4c-.2-.2-.6-.2-.9 0-.4.3-.7 1.1-2.3 1.6-1.1.3-1.9.6-2.4.7-3.7 1-5 2.4-5 5.4C9 41.4 9 44 9 44c0 1.1.9 2 2 2h28c1.1 0 2-.9 2-2v-4.6c0-3-1.3-4.4-5-5.4-.5-.1-1.3-.4-2.4-.7-1.6-.5-1.9-1.3-2.3-1.6-.3-.3-.6-.2-.9 0-.2.1-5.4 4.3-5.4 4.3z"/>
	</symbol>

	<symbol id="icon-48_user-add" viewBox="0 0 48 48">
		<g class="a">
			<path d="M33 42v-4 2h2-4"/>
			<path d="M23 8c1 3.8 4.5 5 6 5 .6 0 1-.4 1-1 0-2 0-11-10-11s-10 9-10 11c0 .6.5 1 1 1 8.2 0 12-5 12-5zm-12 5c0 4.2 2 12 9 12s9-7.2 9-12m-.4 16.3c-1.6-.5-2-1.3-2.3-1.6-.3-.3-.6-.2-1 0L20 32l-5.5-4.4c-.2-.2-.6-.2-1 0-.3.3-.6 1-2.2 1.6L9 30c-3.2.8-3 2-3 5v3c0 1 .8 2 2 2h14"/>
			<circle cx="33" cy="40" r="7"/>
		</g>
	</symbol>

	<!-- Unoptymised -->
	<symbol id="icon-48_user-female" viewBox="0 0 48 48">
		<g class="a">
			<path d="M26,14c0,4.8-1,14-8,14c-7,0-8-9.8-8-14c0,0,12.3,0.1,17.5-8.4"/>
			<path d="M28,38v7h4c1.1,0,2-0.9,2-2c0,0,0-2.6,0-4.6c0-3-1.3-4.4-5-5.4c-0.5-0.1-1.3-0.4-2.4-0.7 c-1.6-0.5-1.9-1.3-2.3-1.6c-0.3-0.3-0.6-0.2-0.9,0C23.2,30.8,18,35,18,35s-5.2-4.2-5.5-4.4c-0.2-0.2-0.6-0.2-0.9,0 c-0.4,0.3-0.7,1.1-2.3,1.6C8.3,32.6,7.5,32.9,7,33c-3.7,1-5,2.4-5,5.4C2,40.4,2,43,2,43c0,1.1,0.9,2,2 2h4v-7v7h20"/>
			<path d="M29,25c0,0,3.5,0,6-2c-3.3-2.2-4.6-7.2-5-10c-0.3-2.1-1.4-12-12-12S6.3,10.9,6,13c-0.4,2.8-1.7,7.8-5,10 c2.5,2,6,2,6,2"/>
		</g>
	</symbol>

	<symbol id="icon-48_user-gentleman" viewBox="0 0 48 48">
		<g class="a">
			<path d="M24 36s-5.2-4.2-5.5-4.4c-.2-.2-.6-.2-.9 0-.4.3-.7 1.1-2.3 1.6-1.1.3-1.9.6-2.4.7-3.7 1-5 2.4-5 5.4C8 41.4 8 45 8 45c0 1.1.9 2 2 2h28c1.1 0 2-.9 2-2v-5.6c0-3-1.3-4.4-5-5.4-.5-.1-1.3-.4-2.4-.7-1.6-.5-1.9-1.3-2.3-1.6-.3-.3-.6-.2-.9 0-.2.1-5.4 4.3-5.4 4.3zM13.1 9h21.8"/>
			<path d="M24 39.9c0-.3-.2-.6-.4-.7l-3.5-1.1c-1-.3-2.1 0-2.1.8V42c0 .8 1.1 1.2 2.1.8l3.5-1.1c.2-.1.4-.4.4-.7v-1.1c0-.3.2-.6.4-.7l3.5-1.1c1-.3 2.1 0 2.1.8V42c0 .8-1.1 1.2-2.1.8l-3.5-1.1c-.2-.1-.4-.4-.4-.7"/>
			<path d="M28 23c-1.9 1.6-3.5.5-4-1-.6 1.5-2.1 2.4-4 1"/>
			<path d="M14 13v2c0 4.2 1.8 14 10 14s10-9.3 10-14v-2h3-2c0-4.9.4-12-11-12S13 8 13 13h-2 23"/>
			<circle cx="28" cy="18" r="2"/>
		</g>
	</symbol>

	<!-- Unoptymised -->
	<symbol id="icon-48_user-group" viewBox="0 0 48 48">
		<g class="a">
			<path d="M27,8c1,3.8,4.5,5,6,5c0.6,0,1-0.4,1-1C34,10,34,1,24,1C14,1,14,10.1,14,12c0,0.6,0.5,1,1,1C23.2,13,27,8,27,8 z"/>
			<path d="M15,13c0,4.2,2,12,8.9,12C31,25,33,17.8,33,13"/>
			<path d="M24,32c0,0-5.2-4.2-5.5-4.4c-0.2-0.2-0.6-0.2-0.9,0c-0.4,0.3-0.7,1.1-2.3,1.6c-1.1,0.3-1.9,0.6-2.4,0.7 c-3.1,0.8-2.9,2-2.9,5c0,1.9,0,3,0,3c0,1.1,0.8,2,1.9,2h24c1.1,0,2.1-0.9,2.1-2c0,0,0-1.1,0-3c0-3,0.6-4-3.1-5 c-0.5-0.1-1.3-0.4-2.4-0.7c-1.6-0.5-1.9-1.3-2.3-1.6c-0.3-0.3-0.6-0.2-0.9,0C29.2,27.8,24,32,24,32z"/>
			<path d="M38,12c0.9,1.3,3.3,2,4,2c0.6,0,1-0.4,1-1c0-3-1.2-8.1-7-10"/>
			<path d="M34,25c5.7,0,8-6.3,8-11"/>
			<path d="M42,38h2.9c1.1,0,2.1-0.9,2.1-2c0,0,0-0.1,0-2c0-2.5-1.3-3.5-3-4c-0.5-0.1-1.1-0.3-1.7-0.7 c-1.4-0.8-1.9-1.3-2.3-1.7"/>
			<path d="M10,13c-1.5,0.9-3.3,1-4,1c-0.6,0-1-0.4-1-1c0-3,1.2-8.1,7-10"/>
			<path d="M14,25c-5.7,0-8-6.3-8-11"/>
			<path d="M6,38H3.1C2,38,1,37.1,1,36c0,0,0-0.1,0-2c0-2.5,1.3-3.5,3-4c0.5-0.1,1.1-0.3,1.7-0.7C7.2,28.5,7.6,28,8,27.7"/>
		</g>
	</symbol>

	<!-- Unoptymised -->
	<symbol id="icon-48_user-search" viewBox="0 0 48 48">
		<g class="a">
			<circle cx="19.5" cy="19.5" r="18.5"/>
			<line x1="32.6" y1="32.6" x2="37" y2="37"/>
			<path d="M42.9,46.4l-6.3-6.3c-0.8-0.8-0.8-2.1,0-2.8l0.7-0.7c0.8-0.8,2.1-0.8,2.8,0l6.3,6.3c0.8,0.8,0.8,2.1,0,2.8 l-0.7,0.7C45,47.2,43.7,47.2,42.9,46.4z"/>
			<line x1="41.3" y1="44.8" x2="44.8" y2="41.3"/>
			<path d="M22.4,14.4c0.9,2.9,3.1,3.6,4.6,3.6c0.6,0,1-0.4,1-1c0-0.6,1.7-10-8-10s-9,9.4-9,10c0,0.6,0.5,1,1,1 c7.2,0,9.5-2,14.5-8.3"/>
			<path d="M12,18c0,4.2,2.2,11,7.5,11S27,22.8,27,18"/>
			<path d="M23,28c0,0,3.1,1.4,4,3.1"/>
			<path d="M16.2,28c-2,1-3.1,1.9-4.2,3.1"/>
		</g>
	</symbol>

	<!-- Unoptymised -->
	<symbol id="icon-48_user-speech" viewBox="0 0 48 48">
		<g class="a">
			<path d="M36,15c1,3.8,4.5,5,6,5c0.6,0,1-0.4,1-1c0-2,0-11-10.1-11C23,8,23,17.1,23,19c0,0.6,0.5,1,1,1 C32.2,20,36,15,36,15z"/>
			<path d="M24,20c0,4.2,2,12,8.9,12C40,32,42,24.8,42,20"/>
			<path d="M32.9,39c0,0-5.2-4.2-5.5-4.4c-0.2-0.2-0.6-0.2-0.9,0c-0.4,0.3-0.7,1.1-2.3,1.6c-1.1,0.3-1.9,0.6-2.4,0.7 c-3.1,0.8-2.9,2-2.9,5c0,1.9,0,3,0,3c0,1.1,0.8,2,1.9,2h24c1.1,0,2.1-0.9,2.1-2c0,0,0-1.1,0-3c0-3,0.6-4-3.1-5 c-0.5-0.1-1.3-0.4-2.4-0.7c-1.6-0.5-1.9-1.3-2.3-1.6c-0.3-0.3-0.6-0.2-0.9,0C38.2,34.8,32.9,39,32.9,39z"/>
			<path d="M30,4V3c0-1.1-0.9-2-2-2H3C1.9,1,1,1.9,1,3v17c0,1.1,0.9,2,2,2h6l8,6l2-6h1"/>
		</g>
	</symbol>

	<symbol id="icon-48_user-strikethrough" viewBox="0 0 48 48">
		<g class="a">
			<circle cx="24" cy="24" r="21"/>
			<path d="M35.3 35.3l3.5 3.5"/>
			<path d="M9.2 9.2l7 7"/>
			<path d="M26.2 19.4c1 3 3.3 3.6 4.8 3.6.6 0 1-.4 1-1 0-1.5 0-10-8-10-9 0-9 8.5-9 10 0 .6.5 1 1 1 7.2 0 9-1.8 14-8.2"/>
			<path d="M16 23c0 4.2 2.2 11 7.5 11S31 27.8 31 23"/>
			<path d="M27 33s3 1.3 4 3"/>
			<path d="M20.2 33c-2 1-3 1.8-4.2 3"/>
		</g>
	</symbol>

	<symbol id="icon-48_vcard" viewBox="0 0 48 48">
		<g class="a">
			<path d="M32 11h12c1 0 2 1 2 2v30c0 1-1 2-2 2H4c-1 0-2-1-2-2V13c0-1 1-2 2-2h12"/>
			<path d="M20 15V7c0-2.2 1.8-4 4-4s4 1.8 4 4v8M30 15H18"/>
			<path d="M28 24h10M28 30h10M28 36h4"/>
			<path d="M12.3 32c-1-1-1.3-2.7-1.3-4 0-2.2 1-5 4-5s4 2.8 4 5c0 1.3-.4 3-1.3 4l2.3.8c1 .4 2 1 2 2.2s-1 2-2 2H10c-1 0-2-1-2-2s1-2 2-2.3l2.3-.8z"/>
		</g>
		<circle class="b" cx="24" cy="7" r="1"/>
	</symbol>

	<symbol id="icon-48_watch" viewBox="0 0 48 48">
		<g class="a">
			<circle cx="22" cy="24" r="15"/>
			<path d="M22 10v3.3c-6 0-10.7 4.8-10.7 10.7H8M22 39v-3M37 24h-3M41 22v4M22 19v5h8M31 41v5c0 .5-.5 1-1 1H14c-.6 0-1-.5-1-1v-5M31 7V2c0-.5-.5-1-1-1H14c-.6 0-1 .5-1 1v5"/>
		</g>
	</symbol>

	<symbol id="icon-48_wiki" viewBox="0 0 48 48">
		<g class="a">
			<path d="M24 8s-5-2-10-2S4.7 7.6 4 8C3 8.4 2 9 2 10.2V40c0 1 .7 2 2 2 1.5 0 5-2 10-2s10 2 10 2 5-2 10-2 8.5 2 10 2c1.3 0 2-1 2-2V10.3c0-1-1-2-2-2.4-.7-.4-5-2-10-2S24 8 24 8z"/>
			<path d="M10 17l9 16 9-16"/>
			<path d="M20 17l9 16 9-16"/>
		</g>
	</symbol>

</g>


<!--
	ICONS: 72px
-->

<g class="icons-72">

	<symbol id="icon-72_gearwheel" viewBox="0 0 72 72">
		<g class="a">
			<path d="M47 14.7c-1.2-.6-2.4-1.1-3.7-1.6-.8-.2-1.4-.9-1.6-1.7l-.3-3.8S40.3 4.9 39.8 4c-.4-.6-.8-1-1.8-1h-3.9c-1 0-1.4.4-1.8 1-.5.8-1.5 2.5-1.6 3.6s-.3 3.8-.3 3.8c-.1.8-.8 1.5-1.6 1.7-1.3.4-2.6.9-3.7 1.6-.7.4-1.6.4-2.3-.1 0 0-2-1.7-2.9-2.4-.9-.7-2.7-1.2-3.7-1.4-.8-.2-1.3-.2-2 .5L11.3 14c-.7.7-.7 1.3-.6 2 .2.9.7 2.8 1.4 3.7.7.9 2.4 2.9 2.4 2.9.5.7.5 1.6.1 2.3-.6 1.2-1.1 2.4-1.6 3.7-.2.8-.9 1.4-1.7 1.6l-3.8.3S4.9 31.7 4 32.2c-.6.4-1 .8-1 1.8v3.9c0 1 .4 1.4 1 1.8.8.5 2.5 1.5 3.6 1.6s3.8.3 3.8.3c.8.1 1.5.8 1.7 1.6.4 1.3.9 2.6 1.6 3.7.4.7.4 1.6-.1 2.3 0 0-1.7 2-2.4 2.9-.7.9-1.2 2.7-1.4 3.7-.2.8-.2 1.3.5 2l2.8 2.8c.7.7 1.3.7 2 .6.9-.2 2.8-.7 3.7-1.4.9-.7 2.9-2.4 2.9-2.4.7-.5 1.6-.5 2.3-.1 1.2.6 2.4 1.1 3.7 1.6.8.2 1.4.9 1.6 1.7l.3 3.8c.1 1.1 1.1 2.8 1.6 3.6.4.7.8 1 1.8 1h3.9c1 0 1.4-.4 1.8-1 .5-.8 1.5-2.5 1.6-3.6.1-1.1.3-3.8.3-3.8.1-.8.8-1.5 1.6-1.7 1.3-.4 2.6-.9 3.7-1.6.7-.4 1.6-.4 2.3.1 0 0 2 1.7 2.9 2.4s2.7 1.2 3.7 1.4c.8.2 1.3.2 2-.5l2.8-2.8c.7-.7.7-1.3.6-2-.2-.9-.7-2.8-1.4-3.7s-2.4-2.9-2.4-2.9c-.5-.7-.5-1.6-.1-2.3.6-1.2 1.1-2.4 1.6-3.7.2-.8.9-1.4 1.7-1.6l3.8-.3c1.1-.1 2.8-1.1 3.6-1.6.7-.4 1-.8 1-1.8v-3.9c0-1-.4-1.4-1-1.8-.8-.5-2.5-1.5-3.6-1.6-1.1-.1-3.8-.3-3.8-.3-.8-.1-1.5-.8-1.7-1.6-.4-1.3-.9-2.5-1.6-3.7-.4-.7-.4-1.6.1-2.3 0 0 1.7-2 2.4-2.9.7-.9 1.2-2.7 1.4-3.7.2-.8.2-1.3-.5-2L58 11.3c-.7-.7-1.3-.7-2-.6-.9.2-2.8.7-3.7 1.4-.9.7-2.9 2.4-2.9 2.4-.7.6-1.6.6-2.4.2z"/>
			<circle cx="36" cy="36" r="11"/>
		</g>
	</symbol>

	<symbol id="icon-72_grading" viewBox="0 0 72 72">
		<g class="a">
			<path d="M37 48h5"/>
			<path d="M40 39h9"/>
			<path d="M40 30h20"/>
			<path d="M37 21h18"/>
			<path d="M51 68.7V54c0-1.7 1.3-3 3-3h14.7"/>
			<path d="M12 34l5 5 8-8"/>
			<path d="M12 20.3C6.5 22.6 3 28 3 34c0 8.3 6.7 15 15 15v17.3c0 1.7 1.4 2.8 3 2.8h28.5l4-2 13.6-13s2-2.2 2-4.4V6c0-1.7-1.3-3-3-3H21c-1.6 0-3 1.3-3 3v13c8.3 0 15 6.7 15 15 0 6-3.6 11.4-9 13.7"/>
		</g>
	</symbol>

	<symbol id="icon-72_refresh" viewBox="0 0 72 72">
		<path class="a" d="M59 29.1c.7 2.2 1 4.5 1 6.9 0 13.3-10.7 24-24 24-6.6 0-12.6-2.7-17-7l3.5-3.5c.9-.9.3-2.5-1-2.5H9c-1.5 0-2 .7-2 2v12.5c0 1.3 1.5 1.9 2.5 1l3.2-3.2c6 6 14.2 9.7 23.3 9.7 18.2 0 33-14.8 33-33 0-2.4-.3-4.7-.7-7M13 42.9c-.7-2.2-1-4.5-1-6.9 0-13.3 10.7-24 24-24 6.6 0 12.6 2.7 17 7l-3.5 3.5c-.9.9-.3 2.5 1 2.5H63c1.5 0 2-.7 2-2V10.5c0-1.3-1.5-1.9-2.5-1l-3.2 3.2C53.4 6.7 45.1 3 36 3 17.8 3 3 17.8 3 36c0 2.4.3 4.7.7 7"/>
	</symbol>

	<symbol id="icon-72_salary-range" viewBox="0 0 72 72">
		<g class="a">
			<circle cx="55" cy="17" r="6"/>
			<path d="M44 54v-6 3H1v-3 6M51 65H13v-3 6M62 68v-6 3h-3M55 43v28M26 53v-4M41 67v-4M42.5 7H14c-1.1 0-2 .9-2 2v16c0 1.1.9 2 2 2h27.8c2.7 4.7 7.2 9.5 13.2 16 9.8-10.9 16-17.2 16-26S63.8 1 55 1c-6.7 0-12.5 4.1-14.8 10"/>
		</g>
	</symbol>

	<symbol id="icon-72_sharepoint" viewBox="0 0 72 72">
		<g class="a">
			<path d="M36.5,70L2.6,63.3C1.7,63.1,1,62.1,1,61V11c0-1.1,0.7-2.1,1.6-2.3L36.5,2C37.9,1.8,39,2.7,39,4.1v63.8C39,69.3,37.9,70.2,36.5,70z"/>
			<path d="M23,25c-0.9-0.7-2.4-1-3.5-1c-1.6,0-5.5,0.8-5.5,5.5c0,4.2,2.8,5.1,5,6.5c2.9,1.9,4,4.2,4,6.5c0,3.3-2.4,5.5-5.5,5.5 c-2.1,0-3.8-1.1-4.5-2"/>
			<path d="M43,23.7c1.1,0.8,2.5,1.3,4,1.3c2,0,3.7-0.8,5-2.1l0,0c3.5,1.3,6.3,4,7.8,7.5l0,0C58.1,31.7,57,33.7,57,36c0,2.3,1.1,4.3,2.8,5.6 c-1.5,3.4-4.3,6.1-7.8,7.5l0,0c-1.3-1.3-3-2.1-5-2.1c-1.5,0-2.9,0.5-4,1.3"/>
			<path d="M43,59.7c1.1,0.8,2.5,1.3,4,1.3c3.9,0,7-3.1,7-7c0-0.1,0-0.2,0-0.3c4.9-1.9,8.8-5.8,10.7-10.7l0,0c3.5-0.3,6.3-3.3,6.3-7
			c0-3.6-2.9-6.7-6.3-7c-1.7-4.6-6-8.9-10.7-10.7c0,0,0-0.2,0-0.3c0-3.9-3.1-7-7-7c-1.5,0-2.9,0.5-4,1.3"/>
		</g>
	</symbol>

	<symbol id="icon-72_speech-bubbles" viewBox="0 0 72 72">
		<g class="a">
			<path d="M57 63.5L45 55H29c-1 0-2-1-2-2V25c0-1 1-2 2-2h40c1 0 2 1 2 2v28c0 1-1 2-2 2h-8s-1 6.7-1.4 8c-.2 1.2-1.6 1.3-2.6.5z"/>
			<path d="M22.8 48L15 53.5c-1 .8-2.4.7-2.6-.5L11 45H3c-1 0-2-1-2-2V15c0-1 1-2 2-2h40c1 0 2 1 2 2v4"/>
			<circle cx="39" cy="39" r="2"/>
			<circle cx="49" cy="39" r="2"/>
			<circle cx="59" cy="39" r="2"/>
		</g>
	</symbol>

	<symbol id="icon-72_tasks" viewBox="0 0 72 72">
		<g class="a">
			<path d="M48 15H24c-.5 0-1-.4-1-1v-2c0-.6.5-1 1-1h24c.5 0 1 .4 1 1v2c0 .6-.5 1-1 1z"/>
			<path d="M45 6h14c1.7 0 3 1.3 3 3v59c0 1.7-1.3 3-3 3H13c-1.6 0-3-1.3-3-3V9c0-1.7 1.4-3 3-3h14"/>
			<path d="M53 13h2c.5 0 1 .4 1 1v50c0 .6-.5 1-1 1H17c-.5 0-1-.4-1-1V14c0-.6.5-1 1-1h2"/>
			<path d="M24 28l2 2 4-4m-6 14l2 2 4-4m-6 14l2 2 4-4m5-21h13M35 41h14M35 53h9"/>
			<circle cx="36" cy="6" r="5"/>
		</g>
	</symbol>

	<symbol id="icon-72_team" viewBox="0 0 72 72">
		<path class="a" d="M39.2 20.3C42.6 25 48 26 50 26c1.3 0 2-.8 2-2 0-.8-1-16-16-16-14.7 0-16 15.2-16 16 0 1.4.7 2 2 2 11.6 0 17.4-4.4 25-13.8M21.3 26c0 6 3 20 14.7 20C47.3 46 50.7 33 50.7 26M36 55.3L27.4 49c-.3-.2-.8-.2-1.2.2-.5.5-1.5 1.4-3.3 2.2l-3.4 1.4c-5 2-6.6 3.8-6.6 8V68c0 1 1 2 2 2h7V60v10h28V60v10h7c1 0 2-1 2-2v-7.2c0-4.3-1.5-6-6.6-8L49 51.2c-1.3-.6-2.8-1.7-3.2-2.2-.4-.3-1-.2-1.2 0L36 55.3zM56 25c2.5 2 5 2 7 2 1.2 0 2-1 2-2 0-3.5-2.6-14-13-14M64 27c0 7.4-3.2 18-15 18M63 67h6.2c1 0 1.8-1 1.8-1.8v-6.5c0-3.8-2-5.6-6-7.3s-6-2.6-7-3.4M16 25c-2.5 2-5 2-7 2-1.2 0-2-1-2-2 0-3.5 2.6-14 13-14M8 27c0 7.4 3.2 18 15 18M9 67H2.8c-1 0-1.8-1-1.8-1.8v-6.5C1 55 3 53 7 51.4s6-2.6 7-3.4"/>
	</symbol>

	<symbol id="icon-72_user" viewBox="0 0 72 72">
		<path class="a" d="M39.3 16c3.7 5.1 9.9 6 12.2 6 .9 0 1.5-.6 1.5-1.5S53.5 2 36 2 19 19.6 19 20.5s.7 1.5 1.5 1.5c12.6 0 19.6-5.1 27.9-15.2M20 22c0 6.4 3.3 22 16 22 12.3 0 16-14.7 16-22M36 54s-8.9-6.5-9.3-6.8c-.4-.3-.9-.4-1.3.1-.5.5-1.6 1.5-3.6 2.4l-3.5 1.5C12.6 53.5 11 55.4 11 60v8c0 1.1.9 2 2 2h8V59v11h30V59v11h8c1.1 0 2-.9 2-2v-8c0-4.6-1.6-6.5-7.2-8.8l-3.5-1.5c-1.5-.6-3.1-1.8-3.6-2.4-.5-.4-1-.3-1.3-.1-.5.3-9.4 6.8-9.4 6.8z"/>
	</symbol>

	<symbol id="icon-72_wiki" viewBox="0 0 72 72">
		<g class="a">
			<path d="M65 12h6-2L48.1 58c-.7 1.3-1.4 1.3-2 0L26 12h-2 12-3l18 40"/>
			<path d="M36.3 35.5L25.1 58c-.7 1.3-1.4 1.3-2 0L3 12H1h12-3l18 40M44 12h6-2l-5 10"/>
		</g>
	</symbol>

</g>

</svg>